<svg width="24" height="24" viewBox="0 0 24 24" fill="none" xmlns="http://www.w3.org/2000/svg">
<g clip-path="url(#clip0_1_133)">
<path d="M12.3754 1.49397L12.3754 6.74095H17.6329V8.99021H12.3986L12.3911 15.5182C12.3911 16.7317 12.4541 17.5106 12.5824 17.856C12.7823 18.4009 13.5098 19.0984 14.8601 19.0984C15.9075 19.0984 17.3205 18.7834 18.3795 17.991V21.4905C17.4964 21.9116 16.6751 22.0815 15.9596 22.2514C15.2434 22.4205 14.4675 22.5056 13.6358 22.5056C12.7092 22.5056 10.0343 22.4801 8.93666 19.6837C8.73904 19.1805 8.64006 18.4496 8.64006 17.493V8.994H5.62019L5.63481 6.69412C6.63456 6.69412 9.63381 6.08698 9.63381 1.49399L12.3754 1.49397ZM12.3754 -0.00605664L9.63376 -0.00610352C8.80539 -0.00610352 8.13376 0.665522 8.13376 1.4939C8.13376 4.9274 6.22051 5.19403 5.63476 5.19403C4.80939 5.19403 4.13852 5.86115 4.13477 6.68653L4.12014 8.98641C4.11789 9.38541 4.27539 9.76866 4.55664 10.0521C4.69611 10.1921 4.86185 10.3032 5.04435 10.379C5.22685 10.4549 5.42252 10.4939 5.62014 10.4939H7.14001V17.4929C7.14001 18.6502 7.27126 19.5468 7.54051 20.2323C8.21661 21.9536 9.82276 24.006 13.6358 24.006C14.58 24.006 15.4777 23.9069 16.3046 23.7116L16.47 23.6726C17.1701 23.508 18.0645 23.3028 19.0249 22.8449C19.2807 22.7231 19.4968 22.5312 19.6481 22.2915C19.7993 22.0518 19.8796 21.7742 19.8795 21.4908V17.9913C19.8795 17.7129 19.802 17.4401 19.6557 17.2032C19.5094 16.9664 19.3 16.775 19.0511 16.6504C18.8389 16.5435 18.6086 16.4914 18.3795 16.4914C18.0556 16.4914 17.7403 16.5962 17.481 16.7902C16.5881 17.4589 15.4455 17.5987 14.8605 17.5987C14.2605 17.5987 14.0374 17.3812 13.9882 17.3235C13.9628 17.2057 13.8915 16.7662 13.8915 15.5186L13.8967 10.4906H17.6329C18.4612 10.4906 19.1329 9.81896 19.1329 8.9906V6.7413C19.1329 5.91293 18.4612 5.2413 17.6329 5.2413H13.8754V1.49395C13.8754 0.665569 13.2037 -0.00605664 12.3754 -0.00605664H12.3754Z" fill="#F3F3F3"/>
</g>
<defs>
<clipPath id="clip0_1_133">
<rect width="24" height="24" fill="white"/>
</clipPath>
</defs>
</svg>
