<svg width="24" height="24" viewBox="0 0 24 24" fill="none" xmlns="http://www.w3.org/2000/svg">
<g clip-path="url(#clip0_1_129)">
<path d="M22.0485 4.44595C21.3983 3.97795 19.5863 3.3562 11.9937 3.3562C3.8573 3.3562 2.65017 4.0702 2.26278 4.30383C0.201031 5.54243 0.00528121 11.026 -0.0126953 12.1379C0.0120546 13.6065 0.249429 18.4923 2.2613 19.701C2.64795 19.9338 3.8483 20.6437 11.9937 20.6437C19.5911 20.6437 21.4009 20.0249 22.0485 19.5588C23.8058 18.2947 24.0079 13.9413 24.0127 12.1188C24.0082 10.6533 23.8545 5.74685 22.0485 4.44597L22.0485 4.44595ZM21.1725 18.3416C20.9111 18.5298 19.4103 19.1437 11.9936 19.1437C4.82325 19.1437 3.31875 18.5872 3.0345 18.4158C2.31075 17.9815 1.54688 15.6764 1.4869 12.1338C1.54615 8.59905 2.32053 6.01868 3.03605 5.58968C3.32105 5.41755 4.83115 4.85655 11.9936 4.85655C19.4043 4.85655 20.9092 5.47457 21.1725 5.66357C21.8149 6.12632 22.5026 8.56232 22.5127 12.1237C22.5026 15.7409 21.8104 17.8826 21.1725 18.3416H21.1725ZM16.8847 11.41L10.1363 7.26888C10.0225 7.20028 9.8926 7.16312 9.75977 7.16121C9.62693 7.1593 9.49597 7.1927 9.38028 7.258C9.26449 7.32331 9.16812 7.41821 9.10105 7.53299C9.03397 7.64777 8.9986 7.77831 8.99854 7.91125V16.195C8.99863 16.3939 9.07768 16.5846 9.21831 16.7252C9.35894 16.8658 9.54965 16.9449 9.74853 16.945C9.88504 16.945 10.019 16.9078 10.1359 16.8374L16.8844 12.6947C17.1094 12.5586 17.247 12.3153 17.247 12.0524C17.247 11.7895 17.1098 11.5454 16.8848 11.41H16.8847ZM10.4989 14.8664V9.2391L15.0458 12.0523L10.4989 14.8664Z" fill="#F3F3F3"/>
</g>
<defs>
<clipPath id="clip0_1_129">
<rect width="24" height="24" fill="white"/>
</clipPath>
</defs>
</svg>
