<svg width="24" height="24" viewBox="0 0 24 24" fill="none" xmlns="http://www.w3.org/2000/svg">
<g clip-path="url(#clip0_1_131)">
<path d="M11.9766 0.09375C15.2109 0.09375 15.6094 0.117188 16.875 0.164062C18.1172 0.210938 18.9844 0.421875 19.7578 0.726562C20.5547 1.03125 21.2109 1.42969 21.8672 2.08594C22.5234 2.74219 22.9219 3.39844 23.2266 4.19531C23.5312 4.96875 23.7422 5.83594 23.7891 7.07812C23.8359 8.34375 23.8594 8.74219 23.8594 11.9766C23.8594 15.2109 23.8359 15.6094 23.7891 16.875C23.7422 18.1172 23.5312 18.9844 23.2266 19.7578C22.9219 20.5547 22.5234 21.2109 21.8672 21.8672C21.2109 22.5234 20.5547 22.9219 19.7578 23.2266C18.9844 23.5312 18.1172 23.7422 16.875 23.7891C15.6094 23.8359 15.2109 23.8594 11.9766 23.8594C8.74219 23.8594 8.34375 23.8359 7.07812 23.7891C5.83594 23.7422 4.96875 23.5312 4.19531 23.2266C3.39844 22.9219 2.74219 22.5234 2.08594 21.8672C1.42969 21.2109 1.03125 20.5547 0.726562 19.7578C0.421875 18.9844 0.210938 18.1172 0.164062 16.875C0.117188 15.6094 0.09375 15.2109 0.09375 11.9766C0.09375 8.74219 0.117188 8.34375 0.164062 7.07812C0.210938 5.83594 0.421875 4.96875 0.726562 4.19531C1.03125 3.39844 1.42969 2.74219 2.08594 2.08594C2.74219 1.42969 3.39844 1.03125 4.19531 0.726562C4.96875 0.421875 5.83594 0.210938 7.07812 0.164062C8.34375 0.117188 8.74219 0.09375 11.9766 0.09375ZM11.9766 1.64062C8.60156 1.64062 8.20312 1.66406 6.89062 1.71094C5.67188 1.75781 4.99219 1.99219 4.54688 2.15625C3.39844 2.625 2.625 3.39844 2.15625 4.54688C1.99219 4.99219 1.75781 5.67188 1.71094 6.89062C1.66406 8.20312 1.64062 8.60156 1.64062 11.9766C1.64062 15.3516 1.66406 15.75 1.71094 17.0625C1.75781 18.2812 1.99219 18.9609 2.15625 19.4062C2.625 20.5547 3.39844 21.3281 4.54688 21.7969C4.99219 21.9609 5.67188 22.1953 6.89062 22.2422C8.20312 22.2891 8.60156 22.3125 11.9766 22.3125C15.3516 22.3125 15.75 22.2891 17.0625 22.2422C18.2812 22.1953 18.9609 21.9609 19.4062 21.7969C20.5547 21.3281 21.3281 20.5547 21.7969 19.4062C21.9609 18.9609 22.1953 18.2812 22.2422 17.0625C22.2891 15.75 22.3125 15.3516 22.3125 11.9766C22.3125 8.60156 22.2891 8.20312 22.2422 6.89062C22.1953 5.67188 21.9609 4.99219 21.7969 4.54688C21.3281 3.39844 20.5547 2.625 19.4062 2.15625C18.9609 1.99219 18.2812 1.75781 17.0625 1.71094C15.75 1.66406 15.3516 1.64062 11.9766 1.64062ZM11.9766 16.7344C14.6016 16.7344 16.7344 14.6016 16.7344 11.9766C16.7344 9.35156 14.6016 7.21875 11.9766 7.21875C9.35156 7.21875 7.21875 9.35156 7.21875 11.9766C7.21875 14.6016 9.35156 16.7344 11.9766 16.7344ZM11.9766 5.88281C15.3516 5.88281 18.0703 8.60156 18.0703 11.9766C18.0703 15.3516 15.3516 18.0703 11.9766 18.0703C8.60156 18.0703 5.88281 15.3516 5.88281 11.9766C5.88281 8.60156 8.60156 5.88281 11.9766 5.88281ZM19.7578 5.64844C19.7578 6.44531 19.1016 7.05469 18.3047 7.05469C17.5078 7.05469 16.8984 6.44531 16.8984 5.64844C16.8984 4.85156 17.5078 4.19531 18.3047 4.19531C19.1016 4.19531 19.7578 4.85156 19.7578 5.64844Z" fill="#F3F3F3"/>
</g>
<defs>
<clipPath id="clip0_1_131">
<rect width="24" height="24" fill="white"/>
</clipPath>
</defs>
</svg>
