<svg width="24" height="24" viewBox="0 0 24 24" fill="none" xmlns="http://www.w3.org/2000/svg">
<g clip-path="url(#clip0_1_127)">
<path d="M16.0404 3.71927C17.2798 3.71927 18.3987 4.22636 19.187 5.04048C20.1676 4.85073 21.092 4.50498 21.9226 4.02611C21.6012 5.00188 20.9176 5.82048 20.0285 6.33836C20.8985 6.23598 21.7314 6.01248 22.5043 5.67836C21.9249 6.51611 21.1955 7.25373 20.3533 7.84323C20.3611 8.02211 20.3657 8.20286 20.3657 8.38283C20.3657 13.9077 16.0295 20.28 8.10053 20.28C5.66678 20.28 3.39991 19.5856 1.49343 18.3998C1.83449 18.4395 2.17757 18.4593 2.52093 18.459C4.54031 18.459 6.39991 17.7912 7.87553 16.6684C5.98816 16.6362 4.39516 15.4261 3.84878 13.7659C4.11637 13.8161 4.38804 13.8413 4.66028 13.8413C5.05216 13.8413 5.43391 13.7907 5.79466 13.6947C3.82291 13.3118 2.33678 11.6217 2.33678 9.59476V9.54116C2.91841 9.85466 3.58253 10.0429 4.29016 10.0647C3.13291 9.31389 2.37203 8.03591 2.37203 6.58501C2.37203 5.81814 2.58506 5.09964 2.95593 4.48426C5.08143 7.01251 8.25768 8.67751 11.8408 8.85264C11.7669 8.54736 11.7287 8.22489 11.7287 7.90051C11.7287 5.59089 13.6588 3.71927 16.0404 3.71927ZM22.5042 5.67913H22.508H22.5042ZM16.0403 2.21936C13.0951 2.21936 10.655 4.37113 10.2793 7.15138C7.86951 6.66726 5.67801 5.39151 4.10338 3.51988C3.96262 3.35243 3.78693 3.2178 3.58864 3.12543C3.39034 3.03306 3.17424 2.98518 2.95549 2.98516C2.9162 2.98517 2.87693 2.98667 2.83776 2.98966C2.6 3.0087 2.37018 3.08406 2.16732 3.20953C1.96446 3.33499 1.79437 3.50694 1.67113 3.71116C1.14819 4.57886 0.871882 5.5728 0.871985 6.5859C0.871985 7.26203 0.993461 7.92053 1.22373 8.53628C0.978485 8.8089 0.83711 9.16553 0.83711 9.54203V9.59565C0.83711 11.0649 1.41798 12.4284 2.38249 13.4503C2.32699 13.7075 2.33936 13.9768 2.42411 14.2348C2.75676 15.2469 3.36238 16.1191 4.14763 16.7836C3.62036 16.901 3.07626 16.9602 2.52086 16.9602C2.22724 16.9602 1.94148 16.9441 1.67111 16.9111C1.61111 16.9036 1.55186 16.901 1.49223 16.901C0.862235 16.901 0.29036 17.2981 0.0781096 17.9037C-0.154765 18.5675 0.103633 19.3032 0.70061 19.6748C2.91613 21.0534 5.47511 21.7812 8.10011 21.7812C16.6321 21.7812 21.7644 15.1021 21.8641 8.57786C22.5642 7.99862 23.1827 7.32728 23.7027 6.58211C23.9002 6.32281 24.0069 6.00578 24.0065 5.67986C24.0065 5.16948 23.7511 4.71836 23.3623 4.44721C23.5306 3.87009 23.3386 3.24534 22.8699 2.86359C22.5961 2.64084 22.2605 2.52759 21.923 2.52759C21.6599 2.52734 21.4015 2.59655 21.1737 2.72821C20.678 3.01398 20.1477 3.24011 19.5894 3.40288C18.5791 2.64276 17.3266 2.21938 16.0403 2.21936Z" fill="#F3F3F3"/>
</g>
<defs>
<clipPath id="clip0_1_127">
<rect width="24" height="24" fill="white"/>
</clipPath>
</defs>
</svg>
