<svg width="264" height="574" viewBox="0 0 264 574" fill="none" xmlns="http://www.w3.org/2000/svg">
<path d="M257 282.5L137 184H17" stroke="#F3F3F3"/>
<circle cx="246" cy="248" r="4" fill="#BC1A1A" fill-opacity="0.8"/>
<circle cx="260" cy="285" r="4" fill="#BC1A1A" fill-opacity="0.8"/>
<circle cx="231" cy="312" r="4" fill="#BC1A1A" fill-opacity="0.8"/>
<circle cx="249" cy="464" r="4" fill="#BC1A1A" fill-opacity="0.8"/>
<path d="M246 466.5L132.5 570.5H20" stroke="#F3F3F3"/>
<path d="M227.5 313.5L112 385H0" stroke="#F3F3F3"/>
<circle cx="15" cy="184" r="3" fill="#BC1A1A" fill-opacity="0.8"/>
<circle cx="18" cy="571" r="3" fill="#BC1A1A" fill-opacity="0.8"/>
<circle cx="28" cy="21" r="3" fill="#BC1A1A" fill-opacity="0.8"/>
<path d="M245.5 244L179.5 21H31" stroke="#F3F3F3"/>
<path d="M32.824 16V4.8H34.008V16H32.824ZM39.8281 16V5.824H35.8921V4.8H44.9481V5.824H41.0121V16H39.8281ZM44.4851 16L49.6051 4.8H50.7731L55.8931 16H54.6451L49.9411 5.488H50.4211L45.7171 16H44.4851ZM46.5011 13.008L46.8531 12.048H53.3651L53.7171 13.008H46.5011ZM57.7459 16V4.8H58.9299V14.976H65.2019V16H57.7459ZM68.6523 16V11.84L68.9243 12.576L64.1723 4.8H65.4363L69.6123 11.632H68.9403L73.1163 4.8H74.3003L69.5483 12.576L69.8203 11.84V16H68.6523ZM82.5 16V5.824H78.564V4.8H87.62V5.824H83.684V16H82.5ZM94.2513 16.096C93.4086 16.096 92.6246 15.9573 91.8993 15.68C91.1846 15.392 90.5606 14.992 90.0273 14.48C89.5046 13.9573 89.0939 13.3547 88.7953 12.672C88.5073 11.9787 88.3633 11.2213 88.3633 10.4C88.3633 9.57867 88.5073 8.82667 88.7953 8.144C89.0939 7.45067 89.5046 6.848 90.0273 6.336C90.5606 5.81333 91.1846 5.41333 91.8993 5.136C92.6139 4.848 93.3979 4.704 94.2513 4.704C95.0939 4.704 95.8726 4.848 96.5873 5.136C97.3019 5.41333 97.9206 5.808 98.4433 6.32C98.9766 6.832 99.3873 7.43467 99.6753 8.128C99.9739 8.82133 100.123 9.57867 100.123 10.4C100.123 11.2213 99.9739 11.9787 99.6753 12.672C99.3873 13.3653 98.9766 13.968 98.4433 14.48C97.9206 14.992 97.3019 15.392 96.5873 15.68C95.8726 15.9573 95.0939 16.096 94.2513 16.096ZM94.2513 15.04C94.9233 15.04 95.5419 14.928 96.1073 14.704C96.6833 14.4693 97.1793 14.144 97.5953 13.728C98.0219 13.3013 98.3526 12.8107 98.5873 12.256C98.8219 11.6907 98.9393 11.072 98.9393 10.4C98.9393 9.728 98.8219 9.11467 98.5873 8.56C98.3526 7.99467 98.0219 7.504 97.5953 7.088C97.1793 6.66133 96.6833 6.336 96.1073 6.112C95.5419 5.87733 94.9233 5.76 94.2513 5.76C93.5793 5.76 92.9553 5.87733 92.3793 6.112C91.8033 6.336 91.3019 6.66133 90.8753 7.088C90.4593 7.504 90.1286 7.99467 89.8832 8.56C89.6486 9.11467 89.5312 9.728 89.5312 10.4C89.5312 11.0613 89.6486 11.6747 89.8832 12.24C90.1286 12.8053 90.4593 13.3013 90.8753 13.728C91.3019 14.144 91.8033 14.4693 92.3793 14.704C92.9553 14.928 93.5793 15.04 94.2513 15.04ZM102.777 16V4.8H103.753L108.873 13.536H108.361L113.433 4.8H114.409V16H113.273V6.576H113.545L108.873 14.576H108.313L103.609 6.576H103.913V16H102.777ZM116.266 16L121.386 4.8H122.554L127.674 16H126.426L121.722 5.488H122.202L117.498 16H116.266ZM118.282 13.008L118.634 12.048H125.146L125.498 13.008H118.282ZM131.141 16V5.824H127.205V4.8H136.261V5.824H132.325V16H131.141ZM142.892 16.096C142.049 16.096 141.265 15.9573 140.54 15.68C139.825 15.392 139.201 14.992 138.668 14.48C138.145 13.9573 137.735 13.3547 137.436 12.672C137.148 11.9787 137.004 11.2213 137.004 10.4C137.004 9.57867 137.148 8.82667 137.436 8.144C137.735 7.45067 138.145 6.848 138.668 6.336C139.201 5.81333 139.825 5.41333 140.54 5.136C141.255 4.848 142.039 4.704 142.892 4.704C143.735 4.704 144.513 4.848 145.228 5.136C145.943 5.41333 146.561 5.808 147.084 6.32C147.617 6.832 148.028 7.43467 148.316 8.128C148.615 8.82133 148.764 9.57867 148.764 10.4C148.764 11.2213 148.615 11.9787 148.316 12.672C148.028 13.3653 147.617 13.968 147.084 14.48C146.561 14.992 145.943 15.392 145.228 15.68C144.513 15.9573 143.735 16.096 142.892 16.096ZM142.892 15.04C143.564 15.04 144.183 14.928 144.748 14.704C145.324 14.4693 145.82 14.144 146.236 13.728C146.663 13.3013 146.993 12.8107 147.228 12.256C147.463 11.6907 147.58 11.072 147.58 10.4C147.58 9.728 147.463 9.11467 147.228 8.56C146.993 7.99467 146.663 7.504 146.236 7.088C145.82 6.66133 145.324 6.336 144.748 6.112C144.183 5.87733 143.564 5.76 142.892 5.76C142.22 5.76 141.596 5.87733 141.02 6.112C140.444 6.336 139.943 6.66133 139.516 7.088C139.1 7.504 138.769 7.99467 138.524 8.56C138.289 9.11467 138.172 9.728 138.172 10.4C138.172 11.0613 138.289 11.6747 138.524 12.24C138.769 12.8053 139.1 13.3013 139.516 13.728C139.943 14.144 140.444 14.4693 141.02 14.704C141.596 14.928 142.22 15.04 142.892 15.04ZM152.474 9.808H158.394V10.816H152.474V9.808ZM152.602 14.976H159.338V16H151.418V4.8H159.098V5.824H152.602V14.976ZM165.209 16.096C164.377 16.096 163.577 15.9627 162.809 15.696C162.052 15.4187 161.465 15.0667 161.049 14.64L161.513 13.728C161.908 14.112 162.436 14.4373 163.097 14.704C163.769 14.96 164.473 15.088 165.209 15.088C165.913 15.088 166.484 15.0027 166.921 14.832C167.369 14.6507 167.694 14.4107 167.897 14.112C168.11 13.8133 168.217 13.4827 168.217 13.12C168.217 12.6827 168.089 12.3307 167.833 12.064C167.588 11.7973 167.262 11.5893 166.857 11.44C166.452 11.28 166.004 11.1413 165.513 11.024C165.022 10.9067 164.532 10.784 164.041 10.656C163.55 10.5173 163.097 10.336 162.681 10.112C162.276 9.888 161.945 9.59467 161.689 9.232C161.444 8.85867 161.321 8.37333 161.321 7.776C161.321 7.22133 161.465 6.71467 161.753 6.256C162.052 5.78667 162.505 5.41333 163.113 5.136C163.721 4.848 164.5 4.704 165.449 4.704C166.078 4.704 166.702 4.79467 167.321 4.976C167.94 5.14667 168.473 5.38667 168.921 5.696L168.521 6.64C168.041 6.32 167.529 6.08533 166.985 5.936C166.452 5.78667 165.934 5.712 165.433 5.712C164.761 5.712 164.206 5.80267 163.769 5.984C163.332 6.16533 163.006 6.41067 162.793 6.72C162.59 7.01867 162.489 7.36 162.489 7.744C162.489 8.18133 162.612 8.53333 162.857 8.8C163.113 9.06667 163.444 9.27467 163.849 9.424C164.265 9.57333 164.718 9.70667 165.209 9.824C165.7 9.94133 166.185 10.0693 166.665 10.208C167.156 10.3467 167.604 10.528 168.009 10.752C168.425 10.9653 168.756 11.2533 169.001 11.616C169.257 11.9787 169.385 12.4533 169.385 13.04C169.385 13.584 169.236 14.0907 168.937 14.56C168.638 15.0187 168.18 15.392 167.561 15.68C166.953 15.9573 166.169 16.096 165.209 16.096Z" fill="#F3F3F3"/>
<path d="M20.88 173.224H26.8V174.248H20.88V173.224ZM21.008 179H19.824V167.8H27.504V168.824H21.008V179ZM29.949 179V167.8H34.141C35.0903 167.8 35.9063 167.955 36.589 168.264C37.2717 168.563 37.7943 169 38.157 169.576C38.5303 170.141 38.717 170.829 38.717 171.64C38.717 172.429 38.5303 173.112 38.157 173.688C37.7943 174.253 37.2717 174.691 36.589 175C35.9063 175.299 35.0903 175.448 34.141 175.448H30.605L31.133 174.904V179H29.949ZM37.597 179L34.717 174.936H35.997L38.893 179H37.597ZM31.133 175L30.605 174.44H34.109C35.229 174.44 36.077 174.195 36.653 173.704C37.2397 173.213 37.533 172.525 37.533 171.64C37.533 170.744 37.2397 170.051 36.653 169.56C36.077 169.069 35.229 168.824 34.109 168.824H30.605L31.133 168.264V175ZM42.5675 172.808H48.4875V173.816H42.5675V172.808ZM42.6955 177.976H49.4315V179H41.5115V167.8H49.1915V168.824H42.6955V177.976ZM55.3026 179.096C54.4706 179.096 53.6706 178.963 52.9026 178.696C52.1453 178.419 51.5586 178.067 51.1426 177.64L51.6066 176.728C52.0013 177.112 52.5293 177.437 53.1906 177.704C53.8626 177.96 54.5666 178.088 55.3026 178.088C56.0066 178.088 56.5773 178.003 57.0146 177.832C57.4626 177.651 57.788 177.411 57.9906 177.112C58.204 176.813 58.3106 176.483 58.3106 176.12C58.3106 175.683 58.1826 175.331 57.9266 175.064C57.6813 174.797 57.356 174.589 56.9506 174.44C56.5453 174.28 56.0973 174.141 55.6066 174.024C55.116 173.907 54.6253 173.784 54.1346 173.656C53.644 173.517 53.1906 173.336 52.7746 173.112C52.3693 172.888 52.0386 172.595 51.7826 172.232C51.5373 171.859 51.4146 171.373 51.4146 170.776C51.4146 170.221 51.5586 169.715 51.8466 169.256C52.1453 168.787 52.5986 168.413 53.2066 168.136C53.8146 167.848 54.5933 167.704 55.5426 167.704C56.172 167.704 56.796 167.795 57.4146 167.976C58.0333 168.147 58.5666 168.387 59.0146 168.696L58.6146 169.64C58.1346 169.32 57.6226 169.085 57.0786 168.936C56.5453 168.787 56.028 168.712 55.5266 168.712C54.8546 168.712 54.3 168.803 53.8626 168.984C53.4253 169.165 53.1 169.411 52.8866 169.72C52.684 170.019 52.5826 170.36 52.5826 170.744C52.5826 171.181 52.7053 171.533 52.9506 171.8C53.2066 172.067 53.5373 172.275 53.9426 172.424C54.3586 172.573 54.812 172.707 55.3026 172.824C55.7933 172.941 56.2786 173.069 56.7586 173.208C57.2493 173.347 57.6973 173.528 58.1026 173.752C58.5186 173.965 58.8493 174.253 59.0946 174.616C59.3506 174.979 59.4786 175.453 59.4786 176.04C59.4786 176.584 59.3293 177.091 59.0306 177.56C58.732 178.019 58.2733 178.392 57.6546 178.68C57.0466 178.957 56.2626 179.096 55.3026 179.096ZM70.2504 167.8H71.4184V179H70.2504V167.8ZM63.2424 179H62.0584V167.8H63.2424V179ZM70.3624 173.832H63.1144V172.792H70.3624V173.832ZM84.1735 179.096C83.3202 179.096 82.5308 178.957 81.8055 178.68C81.0908 178.392 80.4668 177.992 79.9335 177.48C79.4108 176.968 79.0002 176.365 78.7015 175.672C78.4135 174.979 78.2695 174.221 78.2695 173.4C78.2695 172.579 78.4135 171.821 78.7015 171.128C79.0002 170.435 79.4162 169.832 79.9495 169.32C80.4828 168.808 81.1068 168.413 81.8215 168.136C82.5468 167.848 83.3362 167.704 84.1895 167.704C85.0428 167.704 85.8215 167.837 86.5255 168.104C87.2402 168.371 87.8482 168.776 88.3495 169.32L87.6135 170.072C87.1442 169.603 86.6268 169.267 86.0615 169.064C85.4962 168.861 84.8882 168.76 84.2375 168.76C83.5442 168.76 82.9042 168.877 82.3175 169.112C81.7415 169.336 81.2348 169.661 80.7975 170.088C80.3708 170.504 80.0348 170.995 79.7895 171.56C79.5548 172.115 79.4375 172.728 79.4375 173.4C79.4375 174.061 79.5548 174.675 79.7895 175.24C80.0348 175.805 80.3708 176.301 80.7975 176.728C81.2348 177.144 81.7415 177.469 82.3175 177.704C82.9042 177.928 83.5388 178.04 84.2215 178.04C84.8615 178.04 85.4642 177.944 86.0295 177.752C86.6055 177.56 87.1335 177.235 87.6135 176.776L88.2855 177.672C87.7522 178.141 87.1282 178.499 86.4135 178.744C85.6988 178.979 84.9522 179.096 84.1735 179.096ZM87.1495 177.528V173.4H88.2855V177.672L87.1495 177.528ZM89.8445 179L94.9645 167.8H96.1325L101.253 179H100.005L95.3005 168.488H95.7805L91.0765 179H89.8445ZM91.8605 176.008L92.2125 175.048H98.7245L99.0765 176.008H91.8605ZM103.105 179V167.8H107.297C108.247 167.8 109.063 167.955 109.745 168.264C110.428 168.563 110.951 169 111.313 169.576C111.687 170.141 111.873 170.829 111.873 171.64C111.873 172.429 111.687 173.112 111.313 173.688C110.951 174.253 110.428 174.691 109.745 175C109.063 175.299 108.247 175.448 107.297 175.448H103.761L104.289 174.904V179H103.105ZM110.753 179L107.873 174.936H109.153L112.049 179H110.753ZM104.289 175L103.761 174.44H107.265C108.385 174.44 109.233 174.195 109.809 173.704C110.396 173.213 110.689 172.525 110.689 171.64C110.689 170.744 110.396 170.051 109.809 169.56C109.233 169.069 108.385 168.824 107.265 168.824H103.761L104.289 168.264V175ZM114.668 179V167.8H115.852V177.976H122.124V179H114.668ZM124.09 179V167.8H125.274V179H124.09ZM133.782 179.096C132.939 179.096 132.16 178.957 131.446 178.68C130.731 178.392 130.112 177.992 129.59 177.48C129.067 176.968 128.656 176.365 128.358 175.672C128.07 174.979 127.926 174.221 127.926 173.4C127.926 172.579 128.07 171.821 128.358 171.128C128.656 170.435 129.067 169.832 129.59 169.32C130.123 168.808 130.747 168.413 131.462 168.136C132.176 167.848 132.955 167.704 133.798 167.704C134.608 167.704 135.371 167.843 136.086 168.12C136.8 168.387 137.403 168.792 137.894 169.336L137.142 170.088C136.683 169.619 136.176 169.283 135.622 169.08C135.067 168.867 134.47 168.76 133.83 168.76C133.158 168.76 132.534 168.877 131.958 169.112C131.382 169.336 130.88 169.661 130.454 170.088C130.027 170.504 129.691 170.995 129.446 171.56C129.211 172.115 129.094 172.728 129.094 173.4C129.094 174.072 129.211 174.691 129.446 175.256C129.691 175.811 130.027 176.301 130.454 176.728C130.88 177.144 131.382 177.469 131.958 177.704C132.534 177.928 133.158 178.04 133.83 178.04C134.47 178.04 135.067 177.933 135.622 177.72C136.176 177.507 136.683 177.165 137.142 176.696L137.894 177.448C137.403 177.992 136.8 178.403 136.086 178.68C135.371 178.957 134.603 179.096 133.782 179.096Z" fill="#F3F3F3"/>
<path d="M4.368 380L0.592 368.8H1.808L5.344 379.344H4.736L8.384 368.8H9.472L13.072 379.344H12.496L16.064 368.8H17.2L13.424 380H12.176L8.736 370H9.056L5.6 380H4.368ZM27.5629 368.8H28.7309V380H27.5629V368.8ZM20.5549 380H19.3709V368.8H20.5549V380ZM27.6749 374.832H20.4269V373.792H27.6749V374.832ZM32.3865 380V368.8H33.5705V380H32.3865ZM39.3906 380V369.824H35.4546V368.8H44.5106V369.824H40.5746V380H39.3906ZM47.4581 373.808H53.3781V374.816H47.4581V373.808ZM47.5861 378.976H54.3221V380H46.4021V368.8H54.0821V369.824H47.5861V378.976ZM63.8368 380L60.0608 368.8H61.2768L64.8128 379.344H64.2048L67.8528 368.8H68.9408L72.5408 379.344H71.9648L75.5328 368.8H76.6688L72.8928 380H71.6448L68.2048 370H68.5248L65.0688 380H63.8368ZM78.8396 380V368.8H80.0236V380H78.8396ZM83.6678 380V368.8H84.6438L92.3718 378.528H91.8598V368.8H93.0278V380H92.0518L84.3398 370.272H84.8518V380H83.6678ZM97.7394 373.808H103.659V374.816H97.7394V373.808ZM97.8674 378.976H104.603V380H96.6834V368.8H104.363V369.824H97.8674V378.976Z" fill="#F3F3F3"/>
<path d="M23.88 559.224H29.8V560.248H23.88V559.224ZM24.008 565H22.824V553.8H30.504V554.824H24.008V565ZM32.949 565V553.8H37.141C38.0903 553.8 38.9063 553.955 39.589 554.264C40.2717 554.563 40.7943 555 41.157 555.576C41.5303 556.141 41.717 556.829 41.717 557.64C41.717 558.429 41.5303 559.112 41.157 559.688C40.7943 560.253 40.2717 560.691 39.589 561C38.9063 561.299 38.0903 561.448 37.141 561.448H33.605L34.133 560.904V565H32.949ZM40.597 565L37.717 560.936H38.997L41.893 565H40.597ZM34.133 561L33.605 560.44H37.109C38.229 560.44 39.077 560.195 39.653 559.704C40.2397 559.213 40.533 558.525 40.533 557.64C40.533 556.744 40.2397 556.051 39.653 555.56C39.077 555.069 38.229 554.824 37.109 554.824H33.605L34.133 554.264V561ZM45.5675 558.808H51.4875V559.816H45.5675V558.808ZM45.6955 563.976H52.4315V565H44.5115V553.8H52.1915V554.824H45.6955V563.976ZM58.3026 565.096C57.4706 565.096 56.6706 564.963 55.9026 564.696C55.1453 564.419 54.5586 564.067 54.1426 563.64L54.6066 562.728C55.0013 563.112 55.5293 563.437 56.1906 563.704C56.8626 563.96 57.5666 564.088 58.3026 564.088C59.0066 564.088 59.5773 564.003 60.0146 563.832C60.4626 563.651 60.788 563.411 60.9906 563.112C61.204 562.813 61.3106 562.483 61.3106 562.12C61.3106 561.683 61.1826 561.331 60.9266 561.064C60.6813 560.797 60.356 560.589 59.9506 560.44C59.5453 560.28 59.0973 560.141 58.6066 560.024C58.116 559.907 57.6253 559.784 57.1346 559.656C56.644 559.517 56.1906 559.336 55.7746 559.112C55.3693 558.888 55.0386 558.595 54.7826 558.232C54.5373 557.859 54.4146 557.373 54.4146 556.776C54.4146 556.221 54.5586 555.715 54.8466 555.256C55.1453 554.787 55.5986 554.413 56.2066 554.136C56.8146 553.848 57.5933 553.704 58.5426 553.704C59.172 553.704 59.796 553.795 60.4146 553.976C61.0333 554.147 61.5666 554.387 62.0146 554.696L61.6146 555.64C61.1346 555.32 60.6226 555.085 60.0786 554.936C59.5453 554.787 59.028 554.712 58.5266 554.712C57.8546 554.712 57.3 554.803 56.8626 554.984C56.4253 555.165 56.1 555.411 55.8866 555.72C55.684 556.019 55.5826 556.36 55.5826 556.744C55.5826 557.181 55.7053 557.533 55.9506 557.8C56.2066 558.067 56.5373 558.275 56.9426 558.424C57.3586 558.573 57.812 558.707 58.3026 558.824C58.7933 558.941 59.2786 559.069 59.7586 559.208C60.2493 559.347 60.6973 559.528 61.1026 559.752C61.5186 559.965 61.8493 560.253 62.0946 560.616C62.3506 560.979 62.4786 561.453 62.4786 562.04C62.4786 562.584 62.3293 563.091 62.0306 563.56C61.732 564.019 61.2733 564.392 60.6546 564.68C60.0466 564.957 59.2626 565.096 58.3026 565.096ZM73.2504 553.8H74.4184V565H73.2504V553.8ZM66.2424 565H65.0584V553.8H66.2424V565ZM73.3624 559.832H66.1144V558.792H73.3624V559.832ZM82.2615 565V553.8H87.0935C88.3415 553.8 89.3068 554.051 89.9895 554.552C90.6828 555.053 91.0295 555.763 91.0295 556.68C91.0295 557.288 90.8855 557.8 90.5975 558.216C90.3202 558.632 89.9362 558.947 89.4455 559.16C88.9655 559.373 88.4375 559.48 87.8615 559.48L88.1335 559.096C88.8482 559.096 89.4615 559.208 89.9735 559.432C90.4962 559.645 90.9015 559.971 91.1895 560.408C91.4775 560.835 91.6215 561.368 91.6215 562.008C91.6215 562.957 91.2695 563.693 90.5655 564.216C89.8722 564.739 88.8215 565 87.4135 565H82.2615ZM83.4455 564.024H87.3975C88.3788 564.024 89.1308 563.859 89.6535 563.528C90.1762 563.187 90.4375 562.648 90.4375 561.912C90.4375 561.187 90.1762 560.659 89.6535 560.328C89.1308 559.987 88.3788 559.816 87.3975 559.816H83.3175V558.84H87.0135C87.9095 558.84 88.6028 558.669 89.0935 558.328C89.5948 557.987 89.8455 557.48 89.8455 556.808C89.8455 556.125 89.5948 555.619 89.0935 555.288C88.6028 554.947 87.9095 554.776 87.0135 554.776H83.4455V564.024ZM92.532 565L97.652 553.8H98.82L103.94 565H102.692L97.988 554.488H98.468L93.764 565H92.532ZM94.548 562.008L94.9 561.048H101.412L101.764 562.008H94.548ZM108.881 565.096C108.049 565.096 107.249 564.963 106.481 564.696C105.723 564.419 105.137 564.067 104.721 563.64L105.185 562.728C105.579 563.112 106.107 563.437 106.769 563.704C107.441 563.96 108.145 564.088 108.881 564.088C109.585 564.088 110.155 564.003 110.593 563.832C111.041 563.651 111.366 563.411 111.569 563.112C111.782 562.813 111.889 562.483 111.889 562.12C111.889 561.683 111.761 561.331 111.505 561.064C111.259 560.797 110.934 560.589 110.529 560.44C110.123 560.28 109.675 560.141 109.185 560.024C108.694 559.907 108.203 559.784 107.713 559.656C107.222 559.517 106.769 559.336 106.353 559.112C105.947 558.888 105.617 558.595 105.361 558.232C105.115 557.859 104.993 557.373 104.993 556.776C104.993 556.221 105.137 555.715 105.425 555.256C105.723 554.787 106.177 554.413 106.785 554.136C107.393 553.848 108.171 553.704 109.121 553.704C109.75 553.704 110.374 553.795 110.993 553.976C111.611 554.147 112.145 554.387 112.593 554.696L112.193 555.64C111.713 555.32 111.201 555.085 110.657 554.936C110.123 554.787 109.606 554.712 109.105 554.712C108.433 554.712 107.878 554.803 107.441 554.984C107.003 555.165 106.678 555.411 106.465 555.72C106.262 556.019 106.161 556.36 106.161 556.744C106.161 557.181 106.283 557.533 106.529 557.8C106.785 558.067 107.115 558.275 107.521 558.424C107.937 558.573 108.39 558.707 108.881 558.824C109.371 558.941 109.857 559.069 110.337 559.208C110.827 559.347 111.275 559.528 111.681 559.752C112.097 559.965 112.427 560.253 112.673 560.616C112.929 560.979 113.057 561.453 113.057 562.04C113.057 562.584 112.907 563.091 112.609 563.56C112.31 564.019 111.851 564.392 111.233 564.68C110.625 564.957 109.841 565.096 108.881 565.096ZM115.637 565V553.8H116.821V565H115.637ZM120.465 565V553.8H121.649V563.976H127.921V565H120.465Z" fill="#F3F3F3"/>
</svg>
