<svg width="267" height="574" viewBox="0 0 267 574" fill="none" xmlns="http://www.w3.org/2000/svg">
<path d="M260 282.5L140 184H20" stroke="#F3F3F3"/>
<circle cx="249" cy="248" r="4" fill="#BC1A1A" fill-opacity="0.8"/>
<circle cx="263" cy="285" r="4" fill="#BC1A1A" fill-opacity="0.8"/>
<circle cx="234" cy="312" r="4" fill="#BC1A1A" fill-opacity="0.8"/>
<circle cx="252" cy="464" r="4" fill="#BC1A1A" fill-opacity="0.8"/>
<path d="M249 466.5L135.5 570.5H23" stroke="#F3F3F3"/>
<path d="M230.5 313.5L115 385H3" stroke="#F3F3F3"/>
<circle cx="18" cy="184" r="3" fill="#BC1A1A" fill-opacity="0.8"/>
<circle cx="21" cy="571" r="3" fill="#BC1A1A" fill-opacity="0.8"/>
<circle cx="31" cy="21" r="3" fill="#BC1A1A" fill-opacity="0.8"/>
<circle cx="3" cy="384" r="3" fill="#BC1A1A" fill-opacity="0.8"/>
<path d="M248.5 244L182.5 21H34" stroke="#F3F3F3"/>
<path d="M35.824 16V4.8H37.008V16H35.824ZM42.8281 16V5.824H38.8921V4.8H47.9481V5.824H44.0121V16H42.8281ZM47.4851 16L52.6051 4.8H53.7731L58.8931 16H57.6451L52.9411 5.488H53.4211L48.7171 16H47.4851ZM49.5011 13.008L49.8531 12.048H56.3651L56.7171 13.008H49.5011ZM60.7459 16V4.8H61.9299V14.976H68.2019V16H60.7459ZM71.6523 16V11.84L71.9243 12.576L67.1723 4.8H68.4363L72.6123 11.632H71.9403L76.1163 4.8H77.3003L72.5483 12.576L72.8203 11.84V16H71.6523ZM85.5 16V5.824H81.564V4.8H90.62V5.824H86.684V16H85.5ZM97.2513 16.096C96.4086 16.096 95.6246 15.9573 94.8993 15.68C94.1846 15.392 93.5606 14.992 93.0273 14.48C92.5046 13.9573 92.0939 13.3547 91.7953 12.672C91.5073 11.9787 91.3633 11.2213 91.3633 10.4C91.3633 9.57867 91.5073 8.82667 91.7953 8.144C92.0939 7.45067 92.5046 6.848 93.0273 6.336C93.5606 5.81333 94.1846 5.41333 94.8993 5.136C95.6139 4.848 96.3979 4.704 97.2513 4.704C98.0939 4.704 98.8726 4.848 99.5873 5.136C100.302 5.41333 100.921 5.808 101.443 6.32C101.977 6.832 102.387 7.43467 102.675 8.128C102.974 8.82133 103.123 9.57867 103.123 10.4C103.123 11.2213 102.974 11.9787 102.675 12.672C102.387 13.3653 101.977 13.968 101.443 14.48C100.921 14.992 100.302 15.392 99.5873 15.68C98.8726 15.9573 98.0939 16.096 97.2513 16.096ZM97.2513 15.04C97.9233 15.04 98.5419 14.928 99.1073 14.704C99.6833 14.4693 100.179 14.144 100.595 13.728C101.022 13.3013 101.353 12.8107 101.587 12.256C101.822 11.6907 101.939 11.072 101.939 10.4C101.939 9.728 101.822 9.11467 101.587 8.56C101.353 7.99467 101.022 7.504 100.595 7.088C100.179 6.66133 99.6833 6.336 99.1073 6.112C98.5419 5.87733 97.9233 5.76 97.2513 5.76C96.5793 5.76 95.9553 5.87733 95.3793 6.112C94.8033 6.336 94.3019 6.66133 93.8753 7.088C93.4593 7.504 93.1286 7.99467 92.8832 8.56C92.6486 9.11467 92.5312 9.728 92.5312 10.4C92.5312 11.0613 92.6486 11.6747 92.8832 12.24C93.1286 12.8053 93.4593 13.3013 93.8753 13.728C94.3019 14.144 94.8033 14.4693 95.3793 14.704C95.9553 14.928 96.5793 15.04 97.2513 15.04ZM105.777 16V4.8H106.753L111.873 13.536H111.361L116.433 4.8H117.409V16H116.273V6.576H116.545L111.873 14.576H111.313L106.609 6.576H106.913V16H105.777ZM119.266 16L124.386 4.8H125.554L130.674 16H129.426L124.722 5.488H125.202L120.498 16H119.266ZM121.282 13.008L121.634 12.048H128.146L128.498 13.008H121.282ZM134.141 16V5.824H130.205V4.8H139.261V5.824H135.325V16H134.141ZM145.892 16.096C145.049 16.096 144.265 15.9573 143.54 15.68C142.825 15.392 142.201 14.992 141.668 14.48C141.145 13.9573 140.735 13.3547 140.436 12.672C140.148 11.9787 140.004 11.2213 140.004 10.4C140.004 9.57867 140.148 8.82667 140.436 8.144C140.735 7.45067 141.145 6.848 141.668 6.336C142.201 5.81333 142.825 5.41333 143.54 5.136C144.255 4.848 145.039 4.704 145.892 4.704C146.735 4.704 147.513 4.848 148.228 5.136C148.943 5.41333 149.561 5.808 150.084 6.32C150.617 6.832 151.028 7.43467 151.316 8.128C151.615 8.82133 151.764 9.57867 151.764 10.4C151.764 11.2213 151.615 11.9787 151.316 12.672C151.028 13.3653 150.617 13.968 150.084 14.48C149.561 14.992 148.943 15.392 148.228 15.68C147.513 15.9573 146.735 16.096 145.892 16.096ZM145.892 15.04C146.564 15.04 147.183 14.928 147.748 14.704C148.324 14.4693 148.82 14.144 149.236 13.728C149.663 13.3013 149.993 12.8107 150.228 12.256C150.463 11.6907 150.58 11.072 150.58 10.4C150.58 9.728 150.463 9.11467 150.228 8.56C149.993 7.99467 149.663 7.504 149.236 7.088C148.82 6.66133 148.324 6.336 147.748 6.112C147.183 5.87733 146.564 5.76 145.892 5.76C145.22 5.76 144.596 5.87733 144.02 6.112C143.444 6.336 142.943 6.66133 142.516 7.088C142.1 7.504 141.769 7.99467 141.524 8.56C141.289 9.11467 141.172 9.728 141.172 10.4C141.172 11.0613 141.289 11.6747 141.524 12.24C141.769 12.8053 142.1 13.3013 142.516 13.728C142.943 14.144 143.444 14.4693 144.02 14.704C144.596 14.928 145.22 15.04 145.892 15.04ZM155.474 9.808H161.394V10.816H155.474V9.808ZM155.602 14.976H162.338V16H154.418V4.8H162.098V5.824H155.602V14.976ZM168.209 16.096C167.377 16.096 166.577 15.9627 165.809 15.696C165.052 15.4187 164.465 15.0667 164.049 14.64L164.513 13.728C164.908 14.112 165.436 14.4373 166.097 14.704C166.769 14.96 167.473 15.088 168.209 15.088C168.913 15.088 169.484 15.0027 169.921 14.832C170.369 14.6507 170.694 14.4107 170.897 14.112C171.11 13.8133 171.217 13.4827 171.217 13.12C171.217 12.6827 171.089 12.3307 170.833 12.064C170.588 11.7973 170.262 11.5893 169.857 11.44C169.452 11.28 169.004 11.1413 168.513 11.024C168.022 10.9067 167.532 10.784 167.041 10.656C166.55 10.5173 166.097 10.336 165.681 10.112C165.276 9.888 164.945 9.59467 164.689 9.232C164.444 8.85867 164.321 8.37333 164.321 7.776C164.321 7.22133 164.465 6.71467 164.753 6.256C165.052 5.78667 165.505 5.41333 166.113 5.136C166.721 4.848 167.5 4.704 168.449 4.704C169.078 4.704 169.702 4.79467 170.321 4.976C170.94 5.14667 171.473 5.38667 171.921 5.696L171.521 6.64C171.041 6.32 170.529 6.08533 169.985 5.936C169.452 5.78667 168.934 5.712 168.433 5.712C167.761 5.712 167.206 5.80267 166.769 5.984C166.332 6.16533 166.006 6.41067 165.793 6.72C165.59 7.01867 165.489 7.36 165.489 7.744C165.489 8.18133 165.612 8.53333 165.857 8.8C166.113 9.06667 166.444 9.27467 166.849 9.424C167.265 9.57333 167.718 9.70667 168.209 9.824C168.7 9.94133 169.185 10.0693 169.665 10.208C170.156 10.3467 170.604 10.528 171.009 10.752C171.425 10.9653 171.756 11.2533 172.001 11.616C172.257 11.9787 172.385 12.4533 172.385 13.04C172.385 13.584 172.236 14.0907 171.937 14.56C171.638 15.0187 171.18 15.392 170.561 15.68C169.953 15.9573 169.169 16.096 168.209 16.096Z" fill="#F3F3F3"/>
<path d="M23.88 173.224H29.8V174.248H23.88V173.224ZM24.008 179H22.824V167.8H30.504V168.824H24.008V179ZM32.949 179V167.8H37.141C38.0903 167.8 38.9063 167.955 39.589 168.264C40.2717 168.563 40.7943 169 41.157 169.576C41.5303 170.141 41.717 170.829 41.717 171.64C41.717 172.429 41.5303 173.112 41.157 173.688C40.7943 174.253 40.2717 174.691 39.589 175C38.9063 175.299 38.0903 175.448 37.141 175.448H33.605L34.133 174.904V179H32.949ZM40.597 179L37.717 174.936H38.997L41.893 179H40.597ZM34.133 175L33.605 174.44H37.109C38.229 174.44 39.077 174.195 39.653 173.704C40.2397 173.213 40.533 172.525 40.533 171.64C40.533 170.744 40.2397 170.051 39.653 169.56C39.077 169.069 38.229 168.824 37.109 168.824H33.605L34.133 168.264V175ZM45.5675 172.808H51.4875V173.816H45.5675V172.808ZM45.6955 177.976H52.4315V179H44.5115V167.8H52.1915V168.824H45.6955V177.976ZM58.3026 179.096C57.4706 179.096 56.6706 178.963 55.9026 178.696C55.1453 178.419 54.5586 178.067 54.1426 177.64L54.6066 176.728C55.0013 177.112 55.5293 177.437 56.1906 177.704C56.8626 177.96 57.5666 178.088 58.3026 178.088C59.0066 178.088 59.5773 178.003 60.0146 177.832C60.4626 177.651 60.788 177.411 60.9906 177.112C61.204 176.813 61.3106 176.483 61.3106 176.12C61.3106 175.683 61.1826 175.331 60.9266 175.064C60.6813 174.797 60.356 174.589 59.9506 174.44C59.5453 174.28 59.0973 174.141 58.6066 174.024C58.116 173.907 57.6253 173.784 57.1346 173.656C56.644 173.517 56.1906 173.336 55.7746 173.112C55.3693 172.888 55.0386 172.595 54.7826 172.232C54.5373 171.859 54.4146 171.373 54.4146 170.776C54.4146 170.221 54.5586 169.715 54.8466 169.256C55.1453 168.787 55.5986 168.413 56.2066 168.136C56.8146 167.848 57.5933 167.704 58.5426 167.704C59.172 167.704 59.796 167.795 60.4146 167.976C61.0333 168.147 61.5666 168.387 62.0146 168.696L61.6146 169.64C61.1346 169.32 60.6226 169.085 60.0786 168.936C59.5453 168.787 59.028 168.712 58.5266 168.712C57.8546 168.712 57.3 168.803 56.8626 168.984C56.4253 169.165 56.1 169.411 55.8866 169.72C55.684 170.019 55.5826 170.36 55.5826 170.744C55.5826 171.181 55.7053 171.533 55.9506 171.8C56.2066 172.067 56.5373 172.275 56.9426 172.424C57.3586 172.573 57.812 172.707 58.3026 172.824C58.7933 172.941 59.2786 173.069 59.7586 173.208C60.2493 173.347 60.6973 173.528 61.1026 173.752C61.5186 173.965 61.8493 174.253 62.0946 174.616C62.3506 174.979 62.4786 175.453 62.4786 176.04C62.4786 176.584 62.3293 177.091 62.0306 177.56C61.732 178.019 61.2733 178.392 60.6546 178.68C60.0466 178.957 59.2626 179.096 58.3026 179.096ZM73.2504 167.8H74.4184V179H73.2504V167.8ZM66.2424 179H65.0584V167.8H66.2424V179ZM73.3624 173.832H66.1144V172.792H73.3624V173.832ZM87.1735 179.096C86.3202 179.096 85.5308 178.957 84.8055 178.68C84.0908 178.392 83.4668 177.992 82.9335 177.48C82.4108 176.968 82.0002 176.365 81.7015 175.672C81.4135 174.979 81.2695 174.221 81.2695 173.4C81.2695 172.579 81.4135 171.821 81.7015 171.128C82.0002 170.435 82.4162 169.832 82.9495 169.32C83.4828 168.808 84.1068 168.413 84.8215 168.136C85.5468 167.848 86.3362 167.704 87.1895 167.704C88.0428 167.704 88.8215 167.837 89.5255 168.104C90.2402 168.371 90.8482 168.776 91.3495 169.32L90.6135 170.072C90.1442 169.603 89.6268 169.267 89.0615 169.064C88.4962 168.861 87.8882 168.76 87.2375 168.76C86.5442 168.76 85.9042 168.877 85.3175 169.112C84.7415 169.336 84.2348 169.661 83.7975 170.088C83.3708 170.504 83.0348 170.995 82.7895 171.56C82.5548 172.115 82.4375 172.728 82.4375 173.4C82.4375 174.061 82.5548 174.675 82.7895 175.24C83.0348 175.805 83.3708 176.301 83.7975 176.728C84.2348 177.144 84.7415 177.469 85.3175 177.704C85.9042 177.928 86.5388 178.04 87.2215 178.04C87.8615 178.04 88.4642 177.944 89.0295 177.752C89.6055 177.56 90.1335 177.235 90.6135 176.776L91.2855 177.672C90.7522 178.141 90.1282 178.499 89.4135 178.744C88.6988 178.979 87.9522 179.096 87.1735 179.096ZM90.1495 177.528V173.4H91.2855V177.672L90.1495 177.528ZM92.8445 179L97.9645 167.8H99.1325L104.253 179H103.005L98.3005 168.488H98.7805L94.0765 179H92.8445ZM94.8605 176.008L95.2125 175.048H101.725L102.077 176.008H94.8605ZM106.105 179V167.8H110.297C111.247 167.8 112.063 167.955 112.745 168.264C113.428 168.563 113.951 169 114.313 169.576C114.687 170.141 114.873 170.829 114.873 171.64C114.873 172.429 114.687 173.112 114.313 173.688C113.951 174.253 113.428 174.691 112.745 175C112.063 175.299 111.247 175.448 110.297 175.448H106.761L107.289 174.904V179H106.105ZM113.753 179L110.873 174.936H112.153L115.049 179H113.753ZM107.289 175L106.761 174.44H110.265C111.385 174.44 112.233 174.195 112.809 173.704C113.396 173.213 113.689 172.525 113.689 171.64C113.689 170.744 113.396 170.051 112.809 169.56C112.233 169.069 111.385 168.824 110.265 168.824H106.761L107.289 168.264V175ZM117.668 179V167.8H118.852V177.976H125.124V179H117.668ZM127.09 179V167.8H128.274V179H127.09ZM136.782 179.096C135.939 179.096 135.16 178.957 134.446 178.68C133.731 178.392 133.112 177.992 132.59 177.48C132.067 176.968 131.656 176.365 131.358 175.672C131.07 174.979 130.926 174.221 130.926 173.4C130.926 172.579 131.07 171.821 131.358 171.128C131.656 170.435 132.067 169.832 132.59 169.32C133.123 168.808 133.747 168.413 134.462 168.136C135.176 167.848 135.955 167.704 136.798 167.704C137.608 167.704 138.371 167.843 139.086 168.12C139.8 168.387 140.403 168.792 140.894 169.336L140.142 170.088C139.683 169.619 139.176 169.283 138.622 169.08C138.067 168.867 137.47 168.76 136.83 168.76C136.158 168.76 135.534 168.877 134.958 169.112C134.382 169.336 133.88 169.661 133.454 170.088C133.027 170.504 132.691 170.995 132.446 171.56C132.211 172.115 132.094 172.728 132.094 173.4C132.094 174.072 132.211 174.691 132.446 175.256C132.691 175.811 133.027 176.301 133.454 176.728C133.88 177.144 134.382 177.469 134.958 177.704C135.534 177.928 136.158 178.04 136.83 178.04C137.47 178.04 138.067 177.933 138.622 177.72C139.176 177.507 139.683 177.165 140.142 176.696L140.894 177.448C140.403 177.992 139.8 178.403 139.086 178.68C138.371 178.957 137.603 179.096 136.782 179.096Z" fill="#F3F3F3"/>
<path d="M7.368 380L3.592 368.8H4.808L8.344 379.344H7.736L11.384 368.8H12.472L16.072 379.344H15.496L19.064 368.8H20.2L16.424 380H15.176L11.736 370H12.056L8.6 380H7.368ZM30.5629 368.8H31.7309V380H30.5629V368.8ZM23.5549 380H22.3709V368.8H23.5549V380ZM30.6749 374.832H23.4269V373.792H30.6749V374.832ZM35.3865 380V368.8H36.5705V380H35.3865ZM42.3906 380V369.824H38.4546V368.8H47.5106V369.824H43.5746V380H42.3906ZM50.4581 373.808H56.3781V374.816H50.4581V373.808ZM50.5861 378.976H57.3221V380H49.4021V368.8H57.0821V369.824H50.5861V378.976ZM66.8368 380L63.0608 368.8H64.2768L67.8128 379.344H67.2048L70.8528 368.8H71.9408L75.5408 379.344H74.9648L78.5328 368.8H79.6688L75.8928 380H74.6448L71.2048 370H71.5248L68.0688 380H66.8368ZM81.8396 380V368.8H83.0236V380H81.8396ZM86.6678 380V368.8H87.6438L95.3718 378.528H94.8598V368.8H96.0278V380H95.0518L87.3398 370.272H87.8518V380H86.6678ZM100.739 373.808H106.659V374.816H100.739V373.808ZM100.867 378.976H107.603V380H99.6834V368.8H107.363V369.824H100.867V378.976Z" fill="#F3F3F3"/>
<path d="M26.88 559.224H32.8V560.248H26.88V559.224ZM27.008 565H25.824V553.8H33.504V554.824H27.008V565ZM35.949 565V553.8H40.141C41.0903 553.8 41.9063 553.955 42.589 554.264C43.2717 554.563 43.7943 555 44.157 555.576C44.5303 556.141 44.717 556.829 44.717 557.64C44.717 558.429 44.5303 559.112 44.157 559.688C43.7943 560.253 43.2717 560.691 42.589 561C41.9063 561.299 41.0903 561.448 40.141 561.448H36.605L37.133 560.904V565H35.949ZM43.597 565L40.717 560.936H41.997L44.893 565H43.597ZM37.133 561L36.605 560.44H40.109C41.229 560.44 42.077 560.195 42.653 559.704C43.2397 559.213 43.533 558.525 43.533 557.64C43.533 556.744 43.2397 556.051 42.653 555.56C42.077 555.069 41.229 554.824 40.109 554.824H36.605L37.133 554.264V561ZM48.5675 558.808H54.4875V559.816H48.5675V558.808ZM48.6955 563.976H55.4315V565H47.5115V553.8H55.1915V554.824H48.6955V563.976ZM61.3026 565.096C60.4706 565.096 59.6706 564.963 58.9026 564.696C58.1453 564.419 57.5586 564.067 57.1426 563.64L57.6066 562.728C58.0013 563.112 58.5293 563.437 59.1906 563.704C59.8626 563.96 60.5666 564.088 61.3026 564.088C62.0066 564.088 62.5773 564.003 63.0146 563.832C63.4626 563.651 63.788 563.411 63.9906 563.112C64.204 562.813 64.3106 562.483 64.3106 562.12C64.3106 561.683 64.1826 561.331 63.9266 561.064C63.6813 560.797 63.356 560.589 62.9506 560.44C62.5453 560.28 62.0973 560.141 61.6066 560.024C61.116 559.907 60.6253 559.784 60.1346 559.656C59.644 559.517 59.1906 559.336 58.7746 559.112C58.3693 558.888 58.0386 558.595 57.7826 558.232C57.5373 557.859 57.4146 557.373 57.4146 556.776C57.4146 556.221 57.5586 555.715 57.8466 555.256C58.1453 554.787 58.5986 554.413 59.2066 554.136C59.8146 553.848 60.5933 553.704 61.5426 553.704C62.172 553.704 62.796 553.795 63.4146 553.976C64.0333 554.147 64.5666 554.387 65.0146 554.696L64.6146 555.64C64.1346 555.32 63.6226 555.085 63.0786 554.936C62.5453 554.787 62.028 554.712 61.5266 554.712C60.8546 554.712 60.3 554.803 59.8626 554.984C59.4253 555.165 59.1 555.411 58.8866 555.72C58.684 556.019 58.5826 556.36 58.5826 556.744C58.5826 557.181 58.7053 557.533 58.9506 557.8C59.2066 558.067 59.5373 558.275 59.9426 558.424C60.3586 558.573 60.812 558.707 61.3026 558.824C61.7933 558.941 62.2786 559.069 62.7586 559.208C63.2493 559.347 63.6973 559.528 64.1026 559.752C64.5186 559.965 64.8493 560.253 65.0946 560.616C65.3506 560.979 65.4786 561.453 65.4786 562.04C65.4786 562.584 65.3293 563.091 65.0306 563.56C64.732 564.019 64.2733 564.392 63.6546 564.68C63.0466 564.957 62.2626 565.096 61.3026 565.096ZM76.2504 553.8H77.4184V565H76.2504V553.8ZM69.2424 565H68.0584V553.8H69.2424V565ZM76.3624 559.832H69.1144V558.792H76.3624V559.832ZM85.2615 565V553.8H90.0935C91.3415 553.8 92.3068 554.051 92.9895 554.552C93.6828 555.053 94.0295 555.763 94.0295 556.68C94.0295 557.288 93.8855 557.8 93.5975 558.216C93.3202 558.632 92.9362 558.947 92.4455 559.16C91.9655 559.373 91.4375 559.48 90.8615 559.48L91.1335 559.096C91.8482 559.096 92.4615 559.208 92.9735 559.432C93.4962 559.645 93.9015 559.971 94.1895 560.408C94.4775 560.835 94.6215 561.368 94.6215 562.008C94.6215 562.957 94.2695 563.693 93.5655 564.216C92.8722 564.739 91.8215 565 90.4135 565H85.2615ZM86.4455 564.024H90.3975C91.3788 564.024 92.1308 563.859 92.6535 563.528C93.1762 563.187 93.4375 562.648 93.4375 561.912C93.4375 561.187 93.1762 560.659 92.6535 560.328C92.1308 559.987 91.3788 559.816 90.3975 559.816H86.3175V558.84H90.0135C90.9095 558.84 91.6028 558.669 92.0935 558.328C92.5948 557.987 92.8455 557.48 92.8455 556.808C92.8455 556.125 92.5948 555.619 92.0935 555.288C91.6028 554.947 90.9095 554.776 90.0135 554.776H86.4455V564.024ZM95.532 565L100.652 553.8H101.82L106.94 565H105.692L100.988 554.488H101.468L96.764 565H95.532ZM97.548 562.008L97.9 561.048H104.412L104.764 562.008H97.548ZM111.881 565.096C111.049 565.096 110.249 564.963 109.481 564.696C108.723 564.419 108.137 564.067 107.721 563.64L108.185 562.728C108.579 563.112 109.107 563.437 109.769 563.704C110.441 563.96 111.145 564.088 111.881 564.088C112.585 564.088 113.155 564.003 113.593 563.832C114.041 563.651 114.366 563.411 114.569 563.112C114.782 562.813 114.889 562.483 114.889 562.12C114.889 561.683 114.761 561.331 114.505 561.064C114.259 560.797 113.934 560.589 113.529 560.44C113.123 560.28 112.675 560.141 112.185 560.024C111.694 559.907 111.203 559.784 110.713 559.656C110.222 559.517 109.769 559.336 109.353 559.112C108.947 558.888 108.617 558.595 108.361 558.232C108.115 557.859 107.993 557.373 107.993 556.776C107.993 556.221 108.137 555.715 108.425 555.256C108.723 554.787 109.177 554.413 109.785 554.136C110.393 553.848 111.171 553.704 112.121 553.704C112.75 553.704 113.374 553.795 113.993 553.976C114.611 554.147 115.145 554.387 115.593 554.696L115.193 555.64C114.713 555.32 114.201 555.085 113.657 554.936C113.123 554.787 112.606 554.712 112.105 554.712C111.433 554.712 110.878 554.803 110.441 554.984C110.003 555.165 109.678 555.411 109.465 555.72C109.262 556.019 109.161 556.36 109.161 556.744C109.161 557.181 109.283 557.533 109.529 557.8C109.785 558.067 110.115 558.275 110.521 558.424C110.937 558.573 111.39 558.707 111.881 558.824C112.371 558.941 112.857 559.069 113.337 559.208C113.827 559.347 114.275 559.528 114.681 559.752C115.097 559.965 115.427 560.253 115.673 560.616C115.929 560.979 116.057 561.453 116.057 562.04C116.057 562.584 115.907 563.091 115.609 563.56C115.31 564.019 114.851 564.392 114.233 564.68C113.625 564.957 112.841 565.096 111.881 565.096ZM118.637 565V553.8H119.821V565H118.637ZM123.465 565V553.8H124.649V563.976H130.921V565H123.465Z" fill="#F3F3F3"/>
</svg>
