<svg width="32" height="32" viewBox="0 0 32 32" fill="none" xmlns="http://www.w3.org/2000/svg">
<path d="M27.3342 10.652C27.1556 10.4776 26.9159 10.3799 26.6662 10.3799C26.4166 10.3799 26.1768 10.4776 25.9982 10.652L16.0003 20.398L6.00426 10.652C5.82566 10.4776 5.58591 10.3799 5.33626 10.3799C5.08661 10.3799 4.84686 10.4776 4.66826 10.652C4.58117 10.7368 4.51196 10.8382 4.46469 10.9502C4.41743 11.0621 4.39308 11.1825 4.39308 11.304C4.39308 11.4255 4.41743 11.5459 4.46469 11.6578C4.51196 11.7698 4.58117 11.8712 4.66826 11.956L15.3023 22.32C15.489 22.502 15.7395 22.6039 16.0003 22.6039C16.261 22.6039 16.5115 22.502 16.6983 22.32L27.3322 11.956C27.4193 11.8712 27.4885 11.7698 27.5358 11.6578C27.5831 11.5459 27.6074 11.4255 27.6074 11.304C27.6074 11.1825 27.5831 11.0621 27.5358 10.9502C27.4885 10.8382 27.4193 10.7368 27.3322 10.652L27.3342 10.652Z" fill="#F3F3F3"/>
</svg>
