<svg width="32" height="32" viewBox="0 0 32 32" fill="none" xmlns="http://www.w3.org/2000/svg">
<path d="M10.2671 4.27066C10.0959 4.4476 10 4.68514 10 4.93249C10 5.17984 10.0959 5.41737 10.2671 5.59432L19.8345 15.5L10.2671 25.4037C10.0959 25.5806 10 25.8182 10 26.0655C10 26.3129 10.0959 26.5504 10.2671 26.7274C10.3504 26.8136 10.4499 26.8822 10.5598 26.9291C10.6697 26.9759 10.7879 27 10.9072 27C11.0265 27 11.1446 26.9759 11.2545 26.9291C11.3645 26.8822 11.464 26.8136 11.5472 26.7274L21.7213 16.1916C21.9 16.0065 22 15.7584 22 15.5C22 15.2416 21.9 14.9935 21.7213 14.8084L11.5472 4.27264C11.464 4.18636 11.3645 4.11778 11.2545 4.07095C11.1446 4.02413 11.0265 4 10.9072 4C10.7879 4 10.6697 4.02413 10.5598 4.07095C10.4499 4.11778 10.3504 4.18636 10.2671 4.27264V4.27066Z" fill="#F3F3F3"/>
</svg>
