<svg width="32" height="32" viewBox="0 0 32 32" fill="none" xmlns="http://www.w3.org/2000/svg">
<path d="M4.66576 21.348C4.84435 21.5225 5.0841 21.6201 5.33376 21.6201C5.58341 21.6201 5.82316 21.5225 6.00176 21.348L15.9997 11.602L25.9957 21.348C26.1743 21.5225 26.4141 21.6201 26.6637 21.6201C26.9134 21.6201 27.1531 21.5225 27.3317 21.348C27.4188 21.2632 27.488 21.1618 27.5353 21.0499C27.5826 20.9379 27.6069 20.8176 27.6069 20.696C27.6069 20.5745 27.5826 20.4541 27.5353 20.3422C27.488 20.2302 27.4188 20.1288 27.3317 20.044L16.6977 9.68001C16.511 9.49798 16.2605 9.39611 15.9997 9.39611C15.739 9.39611 15.4885 9.49798 15.3017 9.68001L4.66776 20.044C4.58067 20.1288 4.51145 20.2302 4.46419 20.3422C4.41693 20.4541 4.39258 20.5745 4.39258 20.696C4.39258 20.8176 4.41693 20.9379 4.46419 21.0499C4.51145 21.1618 4.58067 21.2632 4.66776 21.348L4.66576 21.348Z" fill="#F3F3F3"/>
</svg>
