<svg width="32" height="32" viewBox="0 0 32 32" fill="none" xmlns="http://www.w3.org/2000/svg">
<path d="M20.7329 26.7293C20.9041 26.5524 21 26.3149 21 26.0675C21 25.8202 20.9041 25.5826 20.7329 25.4057L11.1655 15.5L20.7329 5.5963C20.9041 5.41936 21 5.18182 21 4.93447C21 4.68712 20.9041 4.44958 20.7329 4.27264C20.6496 4.18636 20.5501 4.11778 20.4402 4.07095C20.3303 4.02412 20.2122 4 20.0928 4C19.9735 4 19.8554 4.02412 19.7455 4.07095C19.6355 4.11778 19.536 4.18636 19.4528 4.27264L9.2787 14.8084C9.10001 14.9935 9 15.2416 9 15.5C9 15.7584 9.10001 16.0065 9.2787 16.1916L19.4528 26.7274C19.536 26.8136 19.6355 26.8822 19.7455 26.929C19.8554 26.9759 19.9735 27 20.0928 27C20.2121 27 20.3303 26.9759 20.4402 26.929C20.5501 26.8822 20.6496 26.8136 20.7329 26.7274L20.7329 26.7293Z" fill="#F3F3F3"/>
</svg>
