<svg xmlns="http://www.w3.org/2000/svg">
<defs>
<symbol id="logo" viewBox="0 0 32 32">
   <path d="M31.979 15.7994C31.332 3.75029 25.5224 1.98857 20.8386 1.988H20.8381C19.6546 1.98857 18.5442 2.10057 17.6061 2.18857C17.5981 1.64057 17.6199 1.05371 17.7058 0.405143C17.7074 0.396 17.7037 0.388 17.7026 0.379429C17.7037 0.374857 17.7058 0.370286 17.7058 0.365714C17.7058 0.164 17.3517 0 16.9133 0C16.4759 0 16.1218 0.164 16.1218 0.365714C16.0018 1.01948 15.8384 1.66322 15.6327 2.292C9.45295 2.332 1.31263 3.38229 0.0699598 15.3903C-0.831379 24.1051 7.11267 32 16.0498 32C24.9869 32 32.4488 24.5571 31.979 15.7994ZM17.9389 3.87829C18.157 3.85771 18.3831 3.83657 18.6157 3.81657C18.3362 3.93714 18.0647 4.06229 17.8093 4.188C17.7906 4.09771 17.7778 3.99029 17.7607 3.89429L17.9389 3.87829ZM14.9741 4.01429C14.9042 4.17029 14.8359 4.32 14.7703 4.45771C14.613 4.3052 14.4468 4.16358 14.2727 4.03371C14.5063 4.02514 14.7399 4.01943 14.9741 4.01429ZM27.012 25.3291C24.236 28.4794 20.2402 30.2857 16.0498 30.2857C11.7794 30.2857 7.53774 28.2606 4.70252 24.8686C2.40544 22.1194 1.3249 18.8206 1.66037 15.5789C2.29024 9.49429 4.80279 6.588 8.02734 5.21143C11.1516 4.58971 14.0914 5.73143 14.0914 5.73143C14.0914 5.73143 7.4092 3.95429 4.78892 13.1531C8.08654 7.64514 13.7612 9.26629 15.2541 7.236C15.2541 11.1611 17.9165 9.25657 19.2621 11.0246C20.9933 13.2977 21.6269 17.3709 23.6184 18.1731C21.6568 13.6611 24.8685 13.8371 20.356 7.78171C22.733 9.364 23.9656 7.76286 27.2115 9.18857C24.4344 4.32514 19.9917 5.73143 19.9917 5.73143C19.9917 5.73143 21.7997 3.96629 23.7165 4.01543C26.9549 4.82571 29.9336 7.552 30.3821 15.8983C30.5645 19.3069 29.3677 22.656 27.012 25.3291Z"/>
</symbol>
<symbol id="ketchup" viewBox="0 0 267 574" fill="none">
   <path d="M248.5 244L182.5 21H34" stroke="#F3F3F3"/>
   <circle cx="31" cy="21" r="3" fill="#BC1A1A" fill-opacity="0.8"/>
   <circle cx="249" cy="248" r="4" fill="#BC1A1A" fill-opacity="0.8"/>
   <path d="M35.824 16V4.8H37.008V16H35.824ZM42.8281 16V5.824H38.8921V4.8H47.9481V5.824H44.0121V16H42.8281ZM47.4851 16L52.6051 4.8H53.7731L58.8931 16H57.6451L52.9411 5.488H53.4211L48.7171 16H47.4851ZM49.5011 13.008L49.8531 12.048H56.3651L56.7171 13.008H49.5011ZM60.7459 16V4.8H61.9299V14.976H68.2019V16H60.7459ZM71.6523 16V11.84L71.9243 12.576L67.1723 4.8H68.4363L72.6123 11.632H71.9403L76.1163 4.8H77.3003L72.5483 12.576L72.8203 11.84V16H71.6523ZM85.5 16V5.824H81.564V4.8H90.62V5.824H86.684V16H85.5ZM97.2513 16.096C96.4086 16.096 95.6246 15.9573 94.8993 15.68C94.1846 15.392 93.5606 14.992 93.0273 14.48C92.5046 13.9573 92.0939 13.3547 91.7953 12.672C91.5073 11.9787 91.3633 11.2213 91.3633 10.4C91.3633 9.57867 91.5073 8.82667 91.7953 8.144C92.0939 7.45067 92.5046 6.848 93.0273 6.336C93.5606 5.81333 94.1846 5.41333 94.8993 5.136C95.6139 4.848 96.3979 4.704 97.2513 4.704C98.0939 4.704 98.8726 4.848 99.5873 5.136C100.302 5.41333 100.921 5.808 101.443 6.32C101.977 6.832 102.387 7.43467 102.675 8.128C102.974 8.82133 103.123 9.57867 103.123 10.4C103.123 11.2213 102.974 11.9787 102.675 12.672C102.387 13.3653 101.977 13.968 101.443 14.48C100.921 14.992 100.302 15.392 99.5873 15.68C98.8726 15.9573 98.0939 16.096 97.2513 16.096ZM97.2513 15.04C97.9233 15.04 98.5419 14.928 99.1073 14.704C99.6833 14.4693 100.179 14.144 100.595 13.728C101.022 13.3013 101.353 12.8107 101.587 12.256C101.822 11.6907 101.939 11.072 101.939 10.4C101.939 9.728 101.822 9.11467 101.587 8.56C101.353 7.99467 101.022 7.504 100.595 7.088C100.179 6.66133 99.6833 6.336 99.1073 6.112C98.5419 5.87733 97.9233 5.76 97.2513 5.76C96.5793 5.76 95.9553 5.87733 95.3793 6.112C94.8033 6.336 94.3019 6.66133 93.8753 7.088C93.4593 7.504 93.1286 7.99467 92.8832 8.56C92.6486 9.11467 92.5312 9.728 92.5312 10.4C92.5312 11.0613 92.6486 11.6747 92.8832 12.24C93.1286 12.8053 93.4593 13.3013 93.8753 13.728C94.3019 14.144 94.8033 14.4693 95.3793 14.704C95.9553 14.928 96.5793 15.04 97.2513 15.04ZM105.777 16V4.8H106.753L111.873 13.536H111.361L116.433 4.8H117.409V16H116.273V6.576H116.545L111.873 14.576H111.313L106.609 6.576H106.913V16H105.777ZM119.266 16L124.386 4.8H125.554L130.674 16H129.426L124.722 5.488H125.202L120.498 16H119.266ZM121.282 13.008L121.634 12.048H128.146L128.498 13.008H121.282ZM134.141 16V5.824H130.205V4.8H139.261V5.824H135.325V16H134.141ZM145.892 16.096C145.049 16.096 144.265 15.9573 143.54 15.68C142.825 15.392 142.201 14.992 141.668 14.48C141.145 13.9573 140.735 13.3547 140.436 12.672C140.148 11.9787 140.004 11.2213 140.004 10.4C140.004 9.57867 140.148 8.82667 140.436 8.144C140.735 7.45067 141.145 6.848 141.668 6.336C142.201 5.81333 142.825 5.41333 143.54 5.136C144.255 4.848 145.039 4.704 145.892 4.704C146.735 4.704 147.513 4.848 148.228 5.136C148.943 5.41333 149.561 5.808 150.084 6.32C150.617 6.832 151.028 7.43467 151.316 8.128C151.615 8.82133 151.764 9.57867 151.764 10.4C151.764 11.2213 151.615 11.9787 151.316 12.672C151.028 13.3653 150.617 13.968 150.084 14.48C149.561 14.992 148.943 15.392 148.228 15.68C147.513 15.9573 146.735 16.096 145.892 16.096ZM145.892 15.04C146.564 15.04 147.183 14.928 147.748 14.704C148.324 14.4693 148.82 14.144 149.236 13.728C149.663 13.3013 149.993 12.8107 150.228 12.256C150.463 11.6907 150.58 11.072 150.58 10.4C150.58 9.728 150.463 9.11467 150.228 8.56C149.993 7.99467 149.663 7.504 149.236 7.088C148.82 6.66133 148.324 6.336 147.748 6.112C147.183 5.87733 146.564 5.76 145.892 5.76C145.22 5.76 144.596 5.87733 144.02 6.112C143.444 6.336 142.943 6.66133 142.516 7.088C142.1 7.504 141.769 7.99467 141.524 8.56C141.289 9.11467 141.172 9.728 141.172 10.4C141.172 11.0613 141.289 11.6747 141.524 12.24C141.769 12.8053 142.1 13.3013 142.516 13.728C142.943 14.144 143.444 14.4693 144.02 14.704C144.596 14.928 145.22 15.04 145.892 15.04ZM155.474 9.808H161.394V10.816H155.474V9.808ZM155.602 14.976H162.338V16H154.418V4.8H162.098V5.824H155.602V14.976ZM168.209 16.096C167.377 16.096 166.577 15.9627 165.809 15.696C165.052 15.4187 164.465 15.0667 164.049 14.64L164.513 13.728C164.908 14.112 165.436 14.4373 166.097 14.704C166.769 14.96 167.473 15.088 168.209 15.088C168.913 15.088 169.484 15.0027 169.921 14.832C170.369 14.6507 170.694 14.4107 170.897 14.112C171.11 13.8133 171.217 13.4827 171.217 13.12C171.217 12.6827 171.089 12.3307 170.833 12.064C170.588 11.7973 170.262 11.5893 169.857 11.44C169.452 11.28 169.004 11.1413 168.513 11.024C168.022 10.9067 167.532 10.784 167.041 10.656C166.55 10.5173 166.097 10.336 165.681 10.112C165.276 9.888 164.945 9.59467 164.689 9.232C164.444 8.85867 164.321 8.37333 164.321 7.776C164.321 7.22133 164.465 6.71467 164.753 6.256C165.052 5.78667 165.505 5.41333 166.113 5.136C166.721 4.848 167.5 4.704 168.449 4.704C169.078 4.704 169.702 4.79467 170.321 4.976C170.94 5.14667 171.473 5.38667 171.921 5.696L171.521 6.64C171.041 6.32 170.529 6.08533 169.985 5.936C169.452 5.78667 168.934 5.712 168.433 5.712C167.761 5.712 167.206 5.80267 166.769 5.984C166.332 6.16533 166.006 6.41067 165.793 6.72C165.59 7.01867 165.489 7.36 165.489 7.744C165.489 8.18133 165.612 8.53333 165.857 8.8C166.113 9.06667 166.444 9.27467 166.849 9.424C167.265 9.57333 167.718 9.70667 168.209 9.824C168.7 9.94133 169.185 10.0693 169.665 10.208C170.156 10.3467 170.604 10.528 171.009 10.752C171.425 10.9653 171.756 11.2533 172.001 11.616C172.257 11.9787 172.385 12.4533 172.385 13.04C172.385 13.584 172.236 14.0907 171.937 14.56C171.638 15.0187 171.18 15.392 170.561 15.68C169.953 15.9573 169.169 16.096 168.209 16.096Z" fill="#F3F3F3"/>
   <path d="M260 282.5L140 184H20" stroke="#F3F3F3"/>
   <circle cx="18" cy="184" r="3" fill="#BC1A1A" fill-opacity="0.8"/>
   <circle cx="263" cy="285" r="4" fill="#BC1A1A" fill-opacity="0.8"/>
   <path d="M23.88 173.224H29.8V174.248H23.88V173.224ZM24.008 179H22.824V167.8H30.504V168.824H24.008V179ZM32.949 179V167.8H37.141C38.0903 167.8 38.9063 167.955 39.589 168.264C40.2717 168.563 40.7943 169 41.157 169.576C41.5303 170.141 41.717 170.829 41.717 171.64C41.717 172.429 41.5303 173.112 41.157 173.688C40.7943 174.253 40.2717 174.691 39.589 175C38.9063 175.299 38.0903 175.448 37.141 175.448H33.605L34.133 174.904V179H32.949ZM40.597 179L37.717 174.936H38.997L41.893 179H40.597ZM34.133 175L33.605 174.44H37.109C38.229 174.44 39.077 174.195 39.653 173.704C40.2397 173.213 40.533 172.525 40.533 171.64C40.533 170.744 40.2397 170.051 39.653 169.56C39.077 169.069 38.229 168.824 37.109 168.824H33.605L34.133 168.264V175ZM45.5675 172.808H51.4875V173.816H45.5675V172.808ZM45.6955 177.976H52.4315V179H44.5115V167.8H52.1915V168.824H45.6955V177.976ZM58.3026 179.096C57.4706 179.096 56.6706 178.963 55.9026 178.696C55.1453 178.419 54.5586 178.067 54.1426 177.64L54.6066 176.728C55.0013 177.112 55.5293 177.437 56.1906 177.704C56.8626 177.96 57.5666 178.088 58.3026 178.088C59.0066 178.088 59.5773 178.003 60.0146 177.832C60.4626 177.651 60.788 177.411 60.9906 177.112C61.204 176.813 61.3106 176.483 61.3106 176.12C61.3106 175.683 61.1826 175.331 60.9266 175.064C60.6813 174.797 60.356 174.589 59.9506 174.44C59.5453 174.28 59.0973 174.141 58.6066 174.024C58.116 173.907 57.6253 173.784 57.1346 173.656C56.644 173.517 56.1906 173.336 55.7746 173.112C55.3693 172.888 55.0386 172.595 54.7826 172.232C54.5373 171.859 54.4146 171.373 54.4146 170.776C54.4146 170.221 54.5586 169.715 54.8466 169.256C55.1453 168.787 55.5986 168.413 56.2066 168.136C56.8146 167.848 57.5933 167.704 58.5426 167.704C59.172 167.704 59.796 167.795 60.4146 167.976C61.0333 168.147 61.5666 168.387 62.0146 168.696L61.6146 169.64C61.1346 169.32 60.6226 169.085 60.0786 168.936C59.5453 168.787 59.028 168.712 58.5266 168.712C57.8546 168.712 57.3 168.803 56.8626 168.984C56.4253 169.165 56.1 169.411 55.8866 169.72C55.684 170.019 55.5826 170.36 55.5826 170.744C55.5826 171.181 55.7053 171.533 55.9506 171.8C56.2066 172.067 56.5373 172.275 56.9426 172.424C57.3586 172.573 57.812 172.707 58.3026 172.824C58.7933 172.941 59.2786 173.069 59.7586 173.208C60.2493 173.347 60.6973 173.528 61.1026 173.752C61.5186 173.965 61.8493 174.253 62.0946 174.616C62.3506 174.979 62.4786 175.453 62.4786 176.04C62.4786 176.584 62.3293 177.091 62.0306 177.56C61.732 178.019 61.2733 178.392 60.6546 178.68C60.0466 178.957 59.2626 179.096 58.3026 179.096ZM73.2504 167.8H74.4184V179H73.2504V167.8ZM66.2424 179H65.0584V167.8H66.2424V179ZM73.3624 173.832H66.1144V172.792H73.3624V173.832ZM87.1735 179.096C86.3202 179.096 85.5308 178.957 84.8055 178.68C84.0908 178.392 83.4668 177.992 82.9335 177.48C82.4108 176.968 82.0002 176.365 81.7015 175.672C81.4135 174.979 81.2695 174.221 81.2695 173.4C81.2695 172.579 81.4135 171.821 81.7015 171.128C82.0002 170.435 82.4162 169.832 82.9495 169.32C83.4828 168.808 84.1068 168.413 84.8215 168.136C85.5468 167.848 86.3362 167.704 87.1895 167.704C88.0428 167.704 88.8215 167.837 89.5255 168.104C90.2402 168.371 90.8482 168.776 91.3495 169.32L90.6135 170.072C90.1442 169.603 89.6268 169.267 89.0615 169.064C88.4962 168.861 87.8882 168.76 87.2375 168.76C86.5442 168.76 85.9042 168.877 85.3175 169.112C84.7415 169.336 84.2348 169.661 83.7975 170.088C83.3708 170.504 83.0348 170.995 82.7895 171.56C82.5548 172.115 82.4375 172.728 82.4375 173.4C82.4375 174.061 82.5548 174.675 82.7895 175.24C83.0348 175.805 83.3708 176.301 83.7975 176.728C84.2348 177.144 84.7415 177.469 85.3175 177.704C85.9042 177.928 86.5388 178.04 87.2215 178.04C87.8615 178.04 88.4642 177.944 89.0295 177.752C89.6055 177.56 90.1335 177.235 90.6135 176.776L91.2855 177.672C90.7522 178.141 90.1282 178.499 89.4135 178.744C88.6988 178.979 87.9522 179.096 87.1735 179.096ZM90.1495 177.528V173.4H91.2855V177.672L90.1495 177.528ZM92.8445 179L97.9645 167.8H99.1325L104.253 179H103.005L98.3005 168.488H98.7805L94.0765 179H92.8445ZM94.8605 176.008L95.2125 175.048H101.725L102.077 176.008H94.8605ZM106.105 179V167.8H110.297C111.247 167.8 112.063 167.955 112.745 168.264C113.428 168.563 113.951 169 114.313 169.576C114.687 170.141 114.873 170.829 114.873 171.64C114.873 172.429 114.687 173.112 114.313 173.688C113.951 174.253 113.428 174.691 112.745 175C112.063 175.299 111.247 175.448 110.297 175.448H106.761L107.289 174.904V179H106.105ZM113.753 179L110.873 174.936H112.153L115.049 179H113.753ZM107.289 175L106.761 174.44H110.265C111.385 174.44 112.233 174.195 112.809 173.704C113.396 173.213 113.689 172.525 113.689 171.64C113.689 170.744 113.396 170.051 112.809 169.56C112.233 169.069 111.385 168.824 110.265 168.824H106.761L107.289 168.264V175ZM117.668 179V167.8H118.852V177.976H125.124V179H117.668ZM127.09 179V167.8H128.274V179H127.09ZM136.782 179.096C135.939 179.096 135.16 178.957 134.446 178.68C133.731 178.392 133.112 177.992 132.59 177.48C132.067 176.968 131.656 176.365 131.358 175.672C131.07 174.979 130.926 174.221 130.926 173.4C130.926 172.579 131.07 171.821 131.358 171.128C131.656 170.435 132.067 169.832 132.59 169.32C133.123 168.808 133.747 168.413 134.462 168.136C135.176 167.848 135.955 167.704 136.798 167.704C137.608 167.704 138.371 167.843 139.086 168.12C139.8 168.387 140.403 168.792 140.894 169.336L140.142 170.088C139.683 169.619 139.176 169.283 138.622 169.08C138.067 168.867 137.47 168.76 136.83 168.76C136.158 168.76 135.534 168.877 134.958 169.112C134.382 169.336 133.88 169.661 133.454 170.088C133.027 170.504 132.691 170.995 132.446 171.56C132.211 172.115 132.094 172.728 132.094 173.4C132.094 174.072 132.211 174.691 132.446 175.256C132.691 175.811 133.027 176.301 133.454 176.728C133.88 177.144 134.382 177.469 134.958 177.704C135.534 177.928 136.158 178.04 136.83 178.04C137.47 178.04 138.067 177.933 138.622 177.72C139.176 177.507 139.683 177.165 140.142 176.696L140.894 177.448C140.403 177.992 139.8 178.403 139.086 178.68C138.371 178.957 137.603 179.096 136.782 179.096Z" fill="#F3F3F3"/>
   <path d="M230.5 313.5L115 385H3" stroke="#F3F3F3"/>
   <circle cx="3" cy="384" r="3" fill="#BC1A1A" fill-opacity="0.8"/>
   <circle cx="234" cy="312" r="4" fill="#BC1A1A" fill-opacity="0.8"/>
   <path d="M7.368 380L3.592 368.8H4.808L8.344 379.344H7.736L11.384 368.8H12.472L16.072 379.344H15.496L19.064 368.8H20.2L16.424 380H15.176L11.736 370H12.056L8.6 380H7.368ZM30.5629 368.8H31.7309V380H30.5629V368.8ZM23.5549 380H22.3709V368.8H23.5549V380ZM30.6749 374.832H23.4269V373.792H30.6749V374.832ZM35.3865 380V368.8H36.5705V380H35.3865ZM42.3906 380V369.824H38.4546V368.8H47.5106V369.824H43.5746V380H42.3906ZM50.4581 373.808H56.3781V374.816H50.4581V373.808ZM50.5861 378.976H57.3221V380H49.4021V368.8H57.0821V369.824H50.5861V378.976ZM66.8368 380L63.0608 368.8H64.2768L67.8128 379.344H67.2048L70.8528 368.8H71.9408L75.5408 379.344H74.9648L78.5328 368.8H79.6688L75.8928 380H74.6448L71.2048 370H71.5248L68.0688 380H66.8368ZM81.8396 380V368.8H83.0236V380H81.8396ZM86.6678 380V368.8H87.6438L95.3718 378.528H94.8598V368.8H96.0278V380H95.0518L87.3398 370.272H87.8518V380H86.6678ZM100.739 373.808H106.659V374.816H100.739V373.808ZM100.867 378.976H107.603V380H99.6834V368.8H107.363V369.824H100.867V378.976Z" fill="#F3F3F3"/>
   <path d="M249 466.5L135.5 570.5H23" stroke="#F3F3F3"/>
   <circle cx="21" cy="571" r="3" fill="#BC1A1A" fill-opacity="0.8"/>
   <circle cx="252" cy="464" r="4" fill="#BC1A1A" fill-opacity="0.8"/>
   <path d="M26.88 559.224H32.8V560.248H26.88V559.224ZM27.008 565H25.824V553.8H33.504V554.824H27.008V565ZM35.949 565V553.8H40.141C41.0903 553.8 41.9063 553.955 42.589 554.264C43.2717 554.563 43.7943 555 44.157 555.576C44.5303 556.141 44.717 556.829 44.717 557.64C44.717 558.429 44.5303 559.112 44.157 559.688C43.7943 560.253 43.2717 560.691 42.589 561C41.9063 561.299 41.0903 561.448 40.141 561.448H36.605L37.133 560.904V565H35.949ZM43.597 565L40.717 560.936H41.997L44.893 565H43.597ZM37.133 561L36.605 560.44H40.109C41.229 560.44 42.077 560.195 42.653 559.704C43.2397 559.213 43.533 558.525 43.533 557.64C43.533 556.744 43.2397 556.051 42.653 555.56C42.077 555.069 41.229 554.824 40.109 554.824H36.605L37.133 554.264V561ZM48.5675 558.808H54.4875V559.816H48.5675V558.808ZM48.6955 563.976H55.4315V565H47.5115V553.8H55.1915V554.824H48.6955V563.976ZM61.3026 565.096C60.4706 565.096 59.6706 564.963 58.9026 564.696C58.1453 564.419 57.5586 564.067 57.1426 563.64L57.6066 562.728C58.0013 563.112 58.5293 563.437 59.1906 563.704C59.8626 563.96 60.5666 564.088 61.3026 564.088C62.0066 564.088 62.5773 564.003 63.0146 563.832C63.4626 563.651 63.788 563.411 63.9906 563.112C64.204 562.813 64.3106 562.483 64.3106 562.12C64.3106 561.683 64.1826 561.331 63.9266 561.064C63.6813 560.797 63.356 560.589 62.9506 560.44C62.5453 560.28 62.0973 560.141 61.6066 560.024C61.116 559.907 60.6253 559.784 60.1346 559.656C59.644 559.517 59.1906 559.336 58.7746 559.112C58.3693 558.888 58.0386 558.595 57.7826 558.232C57.5373 557.859 57.4146 557.373 57.4146 556.776C57.4146 556.221 57.5586 555.715 57.8466 555.256C58.1453 554.787 58.5986 554.413 59.2066 554.136C59.8146 553.848 60.5933 553.704 61.5426 553.704C62.172 553.704 62.796 553.795 63.4146 553.976C64.0333 554.147 64.5666 554.387 65.0146 554.696L64.6146 555.64C64.1346 555.32 63.6226 555.085 63.0786 554.936C62.5453 554.787 62.028 554.712 61.5266 554.712C60.8546 554.712 60.3 554.803 59.8626 554.984C59.4253 555.165 59.1 555.411 58.8866 555.72C58.684 556.019 58.5826 556.36 58.5826 556.744C58.5826 557.181 58.7053 557.533 58.9506 557.8C59.2066 558.067 59.5373 558.275 59.9426 558.424C60.3586 558.573 60.812 558.707 61.3026 558.824C61.7933 558.941 62.2786 559.069 62.7586 559.208C63.2493 559.347 63.6973 559.528 64.1026 559.752C64.5186 559.965 64.8493 560.253 65.0946 560.616C65.3506 560.979 65.4786 561.453 65.4786 562.04C65.4786 562.584 65.3293 563.091 65.0306 563.56C64.732 564.019 64.2733 564.392 63.6546 564.68C63.0466 564.957 62.2626 565.096 61.3026 565.096ZM76.2504 553.8H77.4184V565H76.2504V553.8ZM69.2424 565H68.0584V553.8H69.2424V565ZM76.3624 559.832H69.1144V558.792H76.3624V559.832ZM85.2615 565V553.8H90.0935C91.3415 553.8 92.3068 554.051 92.9895 554.552C93.6828 555.053 94.0295 555.763 94.0295 556.68C94.0295 557.288 93.8855 557.8 93.5975 558.216C93.3202 558.632 92.9362 558.947 92.4455 559.16C91.9655 559.373 91.4375 559.48 90.8615 559.48L91.1335 559.096C91.8482 559.096 92.4615 559.208 92.9735 559.432C93.4962 559.645 93.9015 559.971 94.1895 560.408C94.4775 560.835 94.6215 561.368 94.6215 562.008C94.6215 562.957 94.2695 563.693 93.5655 564.216C92.8722 564.739 91.8215 565 90.4135 565H85.2615ZM86.4455 564.024H90.3975C91.3788 564.024 92.1308 563.859 92.6535 563.528C93.1762 563.187 93.4375 562.648 93.4375 561.912C93.4375 561.187 93.1762 560.659 92.6535 560.328C92.1308 559.987 91.3788 559.816 90.3975 559.816H86.3175V558.84H90.0135C90.9095 558.84 91.6028 558.669 92.0935 558.328C92.5948 557.987 92.8455 557.48 92.8455 556.808C92.8455 556.125 92.5948 555.619 92.0935 555.288C91.6028 554.947 90.9095 554.776 90.0135 554.776H86.4455V564.024ZM95.532 565L100.652 553.8H101.82L106.94 565H105.692L100.988 554.488H101.468L96.764 565H95.532ZM97.548 562.008L97.9 561.048H104.412L104.764 562.008H97.548ZM111.881 565.096C111.049 565.096 110.249 564.963 109.481 564.696C108.723 564.419 108.137 564.067 107.721 563.64L108.185 562.728C108.579 563.112 109.107 563.437 109.769 563.704C110.441 563.96 111.145 564.088 111.881 564.088C112.585 564.088 113.155 564.003 113.593 563.832C114.041 563.651 114.366 563.411 114.569 563.112C114.782 562.813 114.889 562.483 114.889 562.12C114.889 561.683 114.761 561.331 114.505 561.064C114.259 560.797 113.934 560.589 113.529 560.44C113.123 560.28 112.675 560.141 112.185 560.024C111.694 559.907 111.203 559.784 110.713 559.656C110.222 559.517 109.769 559.336 109.353 559.112C108.947 558.888 108.617 558.595 108.361 558.232C108.115 557.859 107.993 557.373 107.993 556.776C107.993 556.221 108.137 555.715 108.425 555.256C108.723 554.787 109.177 554.413 109.785 554.136C110.393 553.848 111.171 553.704 112.121 553.704C112.75 553.704 113.374 553.795 113.993 553.976C114.611 554.147 115.145 554.387 115.593 554.696L115.193 555.64C114.713 555.32 114.201 555.085 113.657 554.936C113.123 554.787 112.606 554.712 112.105 554.712C111.433 554.712 110.878 554.803 110.441 554.984C110.003 555.165 109.678 555.411 109.465 555.72C109.262 556.019 109.161 556.36 109.161 556.744C109.161 557.181 109.283 557.533 109.529 557.8C109.785 558.067 110.115 558.275 110.521 558.424C110.937 558.573 111.39 558.707 111.881 558.824C112.371 558.941 112.857 559.069 113.337 559.208C113.827 559.347 114.275 559.528 114.681 559.752C115.097 559.965 115.427 560.253 115.673 560.616C115.929 560.979 116.057 561.453 116.057 562.04C116.057 562.584 115.907 563.091 115.609 563.56C115.31 564.019 114.851 564.392 114.233 564.68C113.625 564.957 112.841 565.096 111.881 565.096ZM118.637 565V553.8H119.821V565H118.637ZM123.465 565V553.8H124.649V563.976H130.921V565H123.465Z" fill="#F3F3F3"/>
</symbol>
<symbol id="ico-tg" viewBox="0 0 24 24">
   <path d="M12.3754 1.49397L12.3754 6.74095H17.6329V8.99021H12.3986L12.3911 15.5182C12.3911 16.7317 12.4541 17.5106 12.5824 17.856C12.7823 18.4009 13.5098 19.0984 14.8601 19.0984C15.9075 19.0984 17.3205 18.7834 18.3795 17.991V21.4905C17.4964 21.9116 16.6751 22.0815 15.9596 22.2514C15.2434 22.4205 14.4675 22.5056 13.6358 22.5056C12.7092 22.5056 10.0343 22.4801 8.93666 19.6837C8.73904 19.1805 8.64006 18.4496 8.64006 17.493V8.994H5.62019L5.63481 6.69412C6.63456 6.69412 9.63381 6.08698 9.63381 1.49399L12.3754 1.49397ZM12.3754 -0.00605664L9.63376 -0.00610352C8.80539 -0.00610352 8.13376 0.665522 8.13376 1.4939C8.13376 4.9274 6.22051 5.19403 5.63476 5.19403C4.80939 5.19403 4.13852 5.86115 4.13477 6.68653L4.12014 8.98641C4.11789 9.38541 4.27539 9.76866 4.55664 10.0521C4.69611 10.1921 4.86185 10.3032 5.04435 10.379C5.22685 10.4549 5.42252 10.4939 5.62014 10.4939H7.14001V17.4929C7.14001 18.6502 7.27126 19.5468 7.54051 20.2323C8.21661 21.9536 9.82276 24.006 13.6358 24.006C14.58 24.006 15.4777 23.9069 16.3046 23.7116L16.47 23.6726C17.1701 23.508 18.0645 23.3028 19.0249 22.8449C19.2807 22.7231 19.4968 22.5312 19.6481 22.2915C19.7993 22.0518 19.8796 21.7742 19.8795 21.4908V17.9913C19.8795 17.7129 19.802 17.4401 19.6557 17.2032C19.5094 16.9664 19.3 16.775 19.0511 16.6504C18.8389 16.5435 18.6086 16.4914 18.3795 16.4914C18.0556 16.4914 17.7403 16.5962 17.481 16.7902C16.5881 17.4589 15.4455 17.5987 14.8605 17.5987C14.2605 17.5987 14.0374 17.3812 13.9882 17.3235C13.9628 17.2057 13.8915 16.7662 13.8915 15.5186L13.8967 10.4906H17.6329C18.4612 10.4906 19.1329 9.81896 19.1329 8.9906V6.7413C19.1329 5.91293 18.4612 5.2413 17.6329 5.2413H13.8754V1.49395C13.8754 0.665569 13.2037 -0.00605664 12.3754 -0.00605664H12.3754Z"/>
</symbol>
<symbol id="ico-ig" viewBox="0 0 24 24">
   <path d="M11.9766 0.09375C15.2109 0.09375 15.6094 0.117188 16.875 0.164062C18.1172 0.210938 18.9844 0.421875 19.7578 0.726562C20.5547 1.03125 21.2109 1.42969 21.8672 2.08594C22.5234 2.74219 22.9219 3.39844 23.2266 4.19531C23.5312 4.96875 23.7422 5.83594 23.7891 7.07812C23.8359 8.34375 23.8594 8.74219 23.8594 11.9766C23.8594 15.2109 23.8359 15.6094 23.7891 16.875C23.7422 18.1172 23.5312 18.9844 23.2266 19.7578C22.9219 20.5547 22.5234 21.2109 21.8672 21.8672C21.2109 22.5234 20.5547 22.9219 19.7578 23.2266C18.9844 23.5312 18.1172 23.7422 16.875 23.7891C15.6094 23.8359 15.2109 23.8594 11.9766 23.8594C8.74219 23.8594 8.34375 23.8359 7.07812 23.7891C5.83594 23.7422 4.96875 23.5312 4.19531 23.2266C3.39844 22.9219 2.74219 22.5234 2.08594 21.8672C1.42969 21.2109 1.03125 20.5547 0.726562 19.7578C0.421875 18.9844 0.210938 18.1172 0.164062 16.875C0.117188 15.6094 0.09375 15.2109 0.09375 11.9766C0.09375 8.74219 0.117188 8.34375 0.164062 7.07812C0.210938 5.83594 0.421875 4.96875 0.726562 4.19531C1.03125 3.39844 1.42969 2.74219 2.08594 2.08594C2.74219 1.42969 3.39844 1.03125 4.19531 0.726562C4.96875 0.421875 5.83594 0.210938 7.07812 0.164062C8.34375 0.117188 8.74219 0.09375 11.9766 0.09375ZM11.9766 1.64062C8.60156 1.64062 8.20312 1.66406 6.89062 1.71094C5.67188 1.75781 4.99219 1.99219 4.54688 2.15625C3.39844 2.625 2.625 3.39844 2.15625 4.54688C1.99219 4.99219 1.75781 5.67188 1.71094 6.89062C1.66406 8.20312 1.64062 8.60156 1.64062 11.9766C1.64062 15.3516 1.66406 15.75 1.71094 17.0625C1.75781 18.2812 1.99219 18.9609 2.15625 19.4062C2.625 20.5547 3.39844 21.3281 4.54688 21.7969C4.99219 21.9609 5.67188 22.1953 6.89062 22.2422C8.20312 22.2891 8.60156 22.3125 11.9766 22.3125C15.3516 22.3125 15.75 22.2891 17.0625 22.2422C18.2812 22.1953 18.9609 21.9609 19.4062 21.7969C20.5547 21.3281 21.3281 20.5547 21.7969 19.4062C21.9609 18.9609 22.1953 18.2812 22.2422 17.0625C22.2891 15.75 22.3125 15.3516 22.3125 11.9766C22.3125 8.60156 22.2891 8.20312 22.2422 6.89062C22.1953 5.67188 21.9609 4.99219 21.7969 4.54688C21.3281 3.39844 20.5547 2.625 19.4062 2.15625C18.9609 1.99219 18.2812 1.75781 17.0625 1.71094C15.75 1.66406 15.3516 1.64062 11.9766 1.64062ZM11.9766 16.7344C14.6016 16.7344 16.7344 14.6016 16.7344 11.9766C16.7344 9.35156 14.6016 7.21875 11.9766 7.21875C9.35156 7.21875 7.21875 9.35156 7.21875 11.9766C7.21875 14.6016 9.35156 16.7344 11.9766 16.7344ZM11.9766 5.88281C15.3516 5.88281 18.0703 8.60156 18.0703 11.9766C18.0703 15.3516 15.3516 18.0703 11.9766 18.0703C8.60156 18.0703 5.88281 15.3516 5.88281 11.9766C5.88281 8.60156 8.60156 5.88281 11.9766 5.88281ZM19.7578 5.64844C19.7578 6.44531 19.1016 7.05469 18.3047 7.05469C17.5078 7.05469 16.8984 6.44531 16.8984 5.64844C16.8984 4.85156 17.5078 4.19531 18.3047 4.19531C19.1016 4.19531 19.7578 4.85156 19.7578 5.64844Z"/>
</symbol>
<symbol id="ico-yt" viewBox="0 0 24 24">
   <path d="M22.0485 4.44595C21.3983 3.97795 19.5863 3.3562 11.9937 3.3562C3.8573 3.3562 2.65017 4.0702 2.26278 4.30383C0.201031 5.54243 0.00528121 11.026 -0.0126953 12.1379C0.0120546 13.6065 0.249429 18.4923 2.2613 19.701C2.64795 19.9338 3.8483 20.6437 11.9937 20.6437C19.5911 20.6437 21.4009 20.0249 22.0485 19.5588C23.8058 18.2947 24.0079 13.9413 24.0127 12.1188C24.0082 10.6533 23.8545 5.74685 22.0485 4.44597L22.0485 4.44595ZM21.1725 18.3416C20.9111 18.5298 19.4103 19.1437 11.9936 19.1437C4.82325 19.1437 3.31875 18.5872 3.0345 18.4158C2.31075 17.9815 1.54688 15.6764 1.4869 12.1338C1.54615 8.59905 2.32053 6.01868 3.03605 5.58968C3.32105 5.41755 4.83115 4.85655 11.9936 4.85655C19.4043 4.85655 20.9092 5.47457 21.1725 5.66357C21.8149 6.12632 22.5026 8.56232 22.5127 12.1237C22.5026 15.7409 21.8104 17.8826 21.1725 18.3416H21.1725ZM16.8847 11.41L10.1363 7.26888C10.0225 7.20028 9.8926 7.16312 9.75977 7.16121C9.62693 7.1593 9.49597 7.1927 9.38028 7.258C9.26449 7.32331 9.16812 7.41821 9.10105 7.53299C9.03397 7.64777 8.9986 7.77831 8.99854 7.91125V16.195C8.99863 16.3939 9.07768 16.5846 9.21831 16.7252C9.35894 16.8658 9.54965 16.9449 9.74853 16.945C9.88504 16.945 10.019 16.9078 10.1359 16.8374L16.8844 12.6947C17.1094 12.5586 17.247 12.3153 17.247 12.0524C17.247 11.7895 17.1098 11.5454 16.8848 11.41H16.8847ZM10.4989 14.8664V9.2391L15.0458 12.0523L10.4989 14.8664Z"/>
</symbol>
<symbol id="ico-tw" viewBox="0 0 24 24">
<path d="M16.0404 3.71927C17.2798 3.71927 18.3987 4.22636 19.187 5.04048C20.1676 4.85073 21.092 4.50498 21.9226 4.02611C21.6012 5.00188 20.9176 5.82048 20.0285 6.33836C20.8985 6.23598 21.7314 6.01248 22.5043 5.67836C21.9249 6.51611 21.1955 7.25373 20.3533 7.84323C20.3611 8.02211 20.3657 8.20286 20.3657 8.38283C20.3657 13.9077 16.0295 20.28 8.10053 20.28C5.66678 20.28 3.39991 19.5856 1.49343 18.3998C1.83449 18.4395 2.17757 18.4593 2.52093 18.459C4.54031 18.459 6.39991 17.7912 7.87553 16.6684C5.98816 16.6362 4.39516 15.4261 3.84878 13.7659C4.11637 13.8161 4.38804 13.8413 4.66028 13.8413C5.05216 13.8413 5.43391 13.7907 5.79466 13.6947C3.82291 13.3118 2.33678 11.6217 2.33678 9.59476V9.54116C2.91841 9.85466 3.58253 10.0429 4.29016 10.0647C3.13291 9.31389 2.37203 8.03591 2.37203 6.58501C2.37203 5.81814 2.58506 5.09964 2.95593 4.48426C5.08143 7.01251 8.25768 8.67751 11.8408 8.85264C11.7669 8.54736 11.7287 8.22489 11.7287 7.90051C11.7287 5.59089 13.6588 3.71927 16.0404 3.71927ZM22.5042 5.67913H22.508H22.5042ZM16.0403 2.21936C13.0951 2.21936 10.655 4.37113 10.2793 7.15138C7.86951 6.66726 5.67801 5.39151 4.10338 3.51988C3.96262 3.35243 3.78693 3.2178 3.58864 3.12543C3.39034 3.03306 3.17424 2.98518 2.95549 2.98516C2.9162 2.98517 2.87693 2.98667 2.83776 2.98966C2.6 3.0087 2.37018 3.08406 2.16732 3.20953C1.96446 3.33499 1.79437 3.50694 1.67113 3.71116C1.14819 4.57886 0.871882 5.5728 0.871985 6.5859C0.871985 7.26203 0.993461 7.92053 1.22373 8.53628C0.978485 8.8089 0.83711 9.16553 0.83711 9.54203V9.59565C0.83711 11.0649 1.41798 12.4284 2.38249 13.4503C2.32699 13.7075 2.33936 13.9768 2.42411 14.2348C2.75676 15.2469 3.36238 16.1191 4.14763 16.7836C3.62036 16.901 3.07626 16.9602 2.52086 16.9602C2.22724 16.9602 1.94148 16.9441 1.67111 16.9111C1.61111 16.9036 1.55186 16.901 1.49223 16.901C0.862235 16.901 0.29036 17.2981 0.0781096 17.9037C-0.154765 18.5675 0.103633 19.3032 0.70061 19.6748C2.91613 21.0534 5.47511 21.7812 8.10011 21.7812C16.6321 21.7812 21.7644 15.1021 21.8641 8.57786C22.5642 7.99862 23.1827 7.32728 23.7027 6.58211C23.9002 6.32281 24.0069 6.00578 24.0065 5.67986C24.0065 5.16948 23.7511 4.71836 23.3623 4.44721C23.5306 3.87009 23.3386 3.24534 22.8699 2.86359C22.5961 2.64084 22.2605 2.52759 21.923 2.52759C21.6599 2.52734 21.4015 2.59655 21.1737 2.72821C20.678 3.01398 20.1477 3.24011 19.5894 3.40288C18.5791 2.64276 17.3266 2.21938 16.0403 2.21936Z"/>
</symbol>
<symbol id="ico-geo" viewBox="0 0 24 24">
   <path d="M18.75 9.75C18.75 7.95979 18.0388 6.2429 16.773 4.97703C15.5071 3.71116 13.7902 3 12 3C10.2098 3 8.4929 3.71116 7.22703 4.97703C5.96116 6.2429 5.25 7.95979 5.25 9.75C5.25 12.519 7.4655 16.128 12 20.451C16.5345 16.128 18.75 12.519 18.75 9.75ZM12 22.5C6.4995 17.5005 3.75 13.2495 3.75 9.75C3.75 7.56196 4.61919 5.46354 6.16637 3.91637C7.71354 2.36919 9.81196 1.5 12 1.5C14.188 1.5 16.2865 2.36919 17.8336 3.91637C19.3808 5.46354 20.25 7.56196 20.25 9.75C20.25 13.2495 17.5005 17.5005 12 22.5Z"/>
   <path d="M12 12C12.5967 12 13.169 11.7629 13.591 11.341C14.0129 10.919 14.25 10.3467 14.25 9.75C14.25 9.15326 14.0129 8.58097 13.591 8.15901C13.169 7.73705 12.5967 7.5 12 7.5C11.4033 7.5 10.831 7.73705 10.409 8.15901C9.98705 8.58097 9.75 9.15326 9.75 9.75C9.75 10.3467 9.98705 10.919 10.409 11.341C10.831 11.7629 11.4033 12 12 12ZM12 13.5C11.0054 13.5 10.0516 13.1049 9.34835 12.4017C8.64509 11.6984 8.25 10.7446 8.25 9.75C8.25 8.75544 8.64509 7.80161 9.34835 7.09835C10.0516 6.39509 11.0054 6 12 6C12.9946 6 13.9484 6.39509 14.6517 7.09835C15.3549 7.80161 15.75 8.75544 15.75 9.75C15.75 10.7446 15.3549 11.6984 14.6517 12.4017C13.9484 13.1049 12.9946 13.5 12 13.5Z"/>
</symbol>
<symbol id="ico-email" viewBox="0 0 24 24">
   <path d="M21.3335 4H2.66683C2.31321 4 1.97407 4.14048 1.72402 4.39052C1.47397 4.64057 1.3335 4.97971 1.3335 5.33333V18.6667C1.3335 19.0203 1.47397 19.3594 1.72402 19.6095C1.97407 19.8595 2.31321 20 2.66683 20H21.3335C21.6871 20 22.0263 19.8595 22.2763 19.6095C22.5264 19.3594 22.6668 19.0203 22.6668 18.6667V5.33333C22.6668 4.97971 22.5264 4.64057 22.2763 4.39052C22.0263 4.14048 21.6871 4 21.3335 4ZM20.3068 18.6667H3.7735L8.44016 13.84L7.48016 12.9133L2.66683 17.8933V6.34667L10.9535 14.5933C11.2033 14.8417 11.5412 14.9811 11.8935 14.9811C12.2457 14.9811 12.5837 14.8417 12.8335 14.5933L21.3335 6.14V17.8067L16.4268 12.9L15.4868 13.84L20.3068 18.6667ZM3.54016 5.33333H20.2535L11.8935 13.6467L3.54016 5.33333Z"/>
</symbol>
<symbol id="slide-up" viewBox="0 0 32 32">
   <path d="M4.66576 21.348C4.84435 21.5225 5.0841 21.6201 5.33376 21.6201C5.58341 21.6201 5.82316 21.5225 6.00176 21.348L15.9997 11.602L25.9957 21.348C26.1743 21.5225 26.4141 21.6201 26.6637 21.6201C26.9134 21.6201 27.1531 21.5225 27.3317 21.348C27.4188 21.2632 27.488 21.1618 27.5353 21.0499C27.5826 20.9379 27.6069 20.8176 27.6069 20.696C27.6069 20.5745 27.5826 20.4541 27.5353 20.3422C27.488 20.2302 27.4188 20.1288 27.3317 20.044L16.6977 9.68001C16.511 9.49798 16.2605 9.39611 15.9997 9.39611C15.739 9.39611 15.4885 9.49798 15.3017 9.68001L4.66776 20.044C4.58067 20.1288 4.51145 20.2302 4.46419 20.3422C4.41693 20.4541 4.39258 20.5745 4.39258 20.696C4.39258 20.8176 4.41693 20.9379 4.46419 21.0499C4.51145 21.1618 4.58067 21.2632 4.66776 21.348L4.66576 21.348Z" fill="#F3F3F3"/>
</symbol>
<symbol id="slide-down" viewBox="0 0 32 32">
   <path d="M27.3342 10.652C27.1556 10.4776 26.9159 10.3799 26.6662 10.3799C26.4166 10.3799 26.1768 10.4776 25.9982 10.652L16.0003 20.398L6.00426 10.652C5.82566 10.4776 5.58591 10.3799 5.33626 10.3799C5.08661 10.3799 4.84686 10.4776 4.66826 10.652C4.58117 10.7368 4.51196 10.8382 4.46469 10.9502C4.41743 11.0621 4.39308 11.1825 4.39308 11.304C4.39308 11.4255 4.41743 11.5459 4.46469 11.6578C4.51196 11.7698 4.58117 11.8712 4.66826 11.956L15.3023 22.32C15.489 22.502 15.7395 22.6039 16.0003 22.6039C16.261 22.6039 16.5115 22.502 16.6983 22.32L27.3322 11.956C27.4193 11.8712 27.4885 11.7698 27.5358 11.6578C27.5831 11.5459 27.6074 11.4255 27.6074 11.304C27.6074 11.1825 27.5831 11.0621 27.5358 10.9502C27.4885 10.8382 27.4193 10.7368 27.3322 10.652L27.3342 10.652Z" fill="#F3F3F3"/>
</symbol>
<symbol id="slide-left" viewBox="0 0 32 32">
   <path d="M20.7329 26.7293C20.9041 26.5524 21 26.3149 21 26.0675C21 25.8202 20.9041 25.5826 20.7329 25.4057L11.1655 15.5L20.7329 5.5963C20.9041 5.41936 21 5.18182 21 4.93447C21 4.68712 20.9041 4.44958 20.7329 4.27264C20.6496 4.18636 20.5501 4.11778 20.4402 4.07095C20.3303 4.02412 20.2122 4 20.0928 4C19.9735 4 19.8554 4.02412 19.7455 4.07095C19.6355 4.11778 19.536 4.18636 19.4528 4.27264L9.2787 14.8084C9.10001 14.9935 9 15.2416 9 15.5C9 15.7584 9.10001 16.0065 9.2787 16.1916L19.4528 26.7274C19.536 26.8136 19.6355 26.8822 19.7455 26.929C19.8554 26.9759 19.9735 27 20.0928 27C20.2121 27 20.3303 26.9759 20.4402 26.929C20.5501 26.8822 20.6496 26.8136 20.7329 26.7274L20.7329 26.7293Z" fill="#F3F3F3"/>
</symbol>
<symbol id="slide-right" viewBox="0 0 32 32">
   <path d="M10.2671 4.27066C10.0959 4.4476 10 4.68514 10 4.93249C10 5.17984 10.0959 5.41737 10.2671 5.59432L19.8345 15.5L10.2671 25.4037C10.0959 25.5806 10 25.8182 10 26.0655C10 26.3129 10.0959 26.5504 10.2671 26.7274C10.3504 26.8136 10.4499 26.8822 10.5598 26.9291C10.6697 26.9759 10.7879 27 10.9072 27C11.0265 27 11.1446 26.9759 11.2545 26.9291C11.3645 26.8822 11.464 26.8136 11.5472 26.7274L21.7213 16.1916C21.9 16.0065 22 15.7584 22 15.5C22 15.2416 21.9 14.9935 21.7213 14.8084L11.5472 4.27264C11.464 4.18636 11.3645 4.11778 11.2545 4.07095C11.1446 4.02413 11.0265 4 10.9072 4C10.7879 4 10.6697 4.02413 10.5598 4.07095C10.4499 4.11778 10.3504 4.18636 10.2671 4.27264V4.27066Z" fill="#F3F3F3"/>
</symbol>
</defs>
</svg>
